SplineFontDB: 3.0
FontName: Bodoni-24-Book
FullName: Bodoni* 24 Book
FamilyName: Bodoni* 24
Weight: Book
Copyright: Copyright (c) 2017, Owen Earl,,, (EwonRael@yahoo.com)
Version: 001.0
ItalicAngle: 0
UnderlinePosition: -409.6
UnderlineWidth: 204.8
Ascent: 3277
Descent: 819
InvalidEm: 0
LayerCount: 2
Layer: 0 0 "Back" 1
Layer: 1 0 "Fore" 0
PreferredKerning: 4
XUID: [1021 31 -699969567 16487490]
FSType: 0
OS2Version: 0
OS2_WeightWidthSlopeOnly: 0
OS2_UseTypoMetrics: 1
CreationTime: 1460762150
ModificationTime: 1565317219
PfmFamily: 17
TTFWeight: 400
TTFWidth: 5
LineGap: 410
VLineGap: 0
OS2TypoAscent: 3277
OS2TypoAOffset: 0
OS2TypoDescent: -819
OS2TypoDOffset: 0
OS2TypoLinegap: 410
OS2WinAscent: 4096
OS2WinAOffset: 0
OS2WinDescent: 1638
OS2WinDOffset: 0
HheadAscent: 4096
HheadAOffset: 0
HheadDescent: -819
HheadDOffset: 0
OS2CapHeight: 700
OS2XHeight: 460
OS2FamilyClass: 768
OS2Vendor: 'PfEd'
OS2UnicodeRanges: 00000001.00000000.00000000.00000000
Lookup: 1 0 0 "'ss02' Style Set 2 lookup 4" { "'ss02' Style Set 2 lookup 4-1"  } ['ss02' ('DFLT' <'dflt' > 'grek' <'dflt' > 'latn' <'dflt' > ) ]
Lookup: 1 0 0 "'ss03' Style Set 3 lookup 5" { "'ss03' Style Set 3 lookup 5-1"  } ['ss03' ('DFLT' <'dflt' > 'grek' <'dflt' > 'latn' <'dflt' > ) ]
Lookup: 1 0 0 "'ss01' Style Set 1 lookup 2" { "'ss01' Style Set 1 lookup 2-1"  } ['ss01' ('DFLT' <'dflt' > 'grek' <'dflt' > 'latn' <'dflt' > ) ]
Lookup: 5 0 0 "'calt' Contextual Alternates lookup 3" { "'calt' Contextual Alternates lookup 3-1"  } ['calt' ('DFLT' <'dflt' > 'grek' <'dflt' > 'latn' <'dflt' > ) ]
Lookup: 4 0 1 "'liga' Standard Ligatures lookup 0" { "'liga' Standard Ligatures lookup 0-1"  } ['liga' ('DFLT' <'dflt' > 'grek' <'dflt' > 'latn' <'dflt' > ) ]
Lookup: 258 0 0 "'kern' Horizontal Kerning lookup 0" { "kerning like they all do" [150,0,6] } ['kern' ('DFLT' <'dflt' > 'grek' <'dflt' > 'latn' <'dflt' > ) ]
MarkAttachClasses: 1
DEI: 91125
KernClass2: 31 27 "kerning like they all do"

StartChar: ampersand
Encoding: 38 38 0
GlifName: ampersand
Width: 3293
Flags: HMW
LayerCount: 2
Fore
SplineSet
2228 1884 m 1
 3211 1884 l 1
 3211 1847 l 1
 2228 1847 l 1
 2228 1884 l 1
2806 1868 m 1
 2708 955 2056 -41 1102 -41 c 0
 557 -41 164 233 164 737 c 0
 164 1315 798 1462 1290 1745 c 0
 1597 1921 1847 2076 1847 2580 c 0
 1847 2773 1777 3084 1470 3084 c 0
 1155 3084 1049 2838 1049 2621 c 0
 1049 2478 1151 2269 1327 2007 c 2
 2626 37 l 1
 3150 37 l 1
 3150 0 l 1
 2191 0 l 1
 836 2007 l 2
 730 2163 647 2368 647 2511 c 0
 647 2880 995 3113 1470 3113 c 0
 1908 3113 2232 2888 2232 2560 c 0
 2232 2068 1753 1945 1315 1716 c 0
 950 1523 614 1294 614 778 c 0
 614 401 881 74 1266 74 c 0
 2065 74 2687 1012 2769 1868 c 1
 2806 1868 l 1
EndSplineSet
EndChar

StartChar: period
Encoding: 46 46 1
GlifName: period
Width: 819
Flags: HMW
LayerCount: 2
Fore
SplineSet
164 205 m 0
 164 340 275 451 410 451 c 0
 545 451 655 340 655 205 c 0
 655 70 545 -41 410 -41 c 0
 275 -41 164 70 164 205 c 0
EndSplineSet
EndChar

StartChar: zero
Encoding: 48 48 2
GlifName: zero
Width: 2539
Flags: HMW
LayerCount: 2
Fore
SplineSet
1270 -41 m 0
 602 -41 164 664 164 1536 c 0
 164 2408 643 3113 1270 3113 c 0
 1897 3113 2376 2408 2376 1536 c 0
 2376 664 1938 -41 1270 -41 c 0
1270 3080 m 0
 762 3080 635 2281 635 1536 c 0
 635 791 721 -8 1270 -8 c 0
 1819 -8 1905 791 1905 1536 c 0
 1905 2281 1778 3080 1270 3080 c 0
EndSplineSet
EndChar

StartChar: one
Encoding: 49 49 3
GlifName: one
Width: 1781
VWidth: 4730
Flags: HMW
LayerCount: 2
Fore
SplineSet
205 37 m 1
 1577 37 l 1
 1577 0 l 1
 205 0 l 1
 205 37 l 1
274 3072 m 1
 1126 3072 l 1
 1126 20 l 1
 737 20 l 1
 737 3035 l 1
 274 3035 l 1
 274 3072 l 1
EndSplineSet
EndChar

StartChar: two
Encoding: 50 50 4
GlifName: two
Width: 2252
VWidth: 4730
Flags: HMW
LayerCount: 2
Fore
SplineSet
2109 0 m 1
 164 0 l 1
 164 266 l 1
 1061 1139 l 2
 1417 1487 1614 1868 1614 2253 c 0
 1614 2720 1421 3035 979 3035 c 0
 545 3035 246 2691 258 2236 c 1
 295 2314 368 2384 487 2384 c 0
 606 2384 729 2297 729 2154 c 0
 729 1990 614 1892 471 1892 c 0
 328 1892 209 1995 209 2249 c 0
 209 2728 524 3113 1126 3113 c 0
 1704 3113 2023 2745 2023 2335 c 0
 2023 1925 1704 1704 1483 1487 c 2
 328 369 l 1
 2073 369 l 1
 2073 676 l 1
 2109 676 l 1
 2109 0 l 1
EndSplineSet
EndChar

StartChar: three
Encoding: 51 51 5
GlifName: three
Width: 2134
VWidth: 4730
Flags: HMW
LayerCount: 2
Fore
SplineSet
1970 819 m 0
 1970 287 1524 -41 946 -41 c 0
 364 -41 102 262 102 557 c 0
 102 725 205 823 348 823 c 0
 471 823 569 741 569 594 c 0
 569 463 455 369 336 369 c 0
 242 369 184 426 168 479 c 1
 184 266 418 12 889 12 c 0
 1376 12 1556 434 1556 819 c 0
 1556 1122 1442 1642 750 1642 c 1
 750 1671 l 1
 1737 1671 1970 1270 1970 819 c 0
750 1651 m 1
 750 1679 l 1
 1401 1679 1434 2159 1434 2421 c 0
 1434 2724 1274 3060 950 3060 c 0
 635 3060 352 2875 291 2646 c 1
 324 2707 389 2740 459 2740 c 0
 578 2740 692 2658 692 2515 c 0
 692 2351 561 2286 459 2286 c 0
 336 2286 225 2372 225 2540 c 0
 225 2835 569 3109 987 3109 c 0
 1442 3109 1847 2872 1847 2421 c 0
 1847 2011 1696 1651 750 1651 c 1
EndSplineSet
EndChar

StartChar: four
Encoding: 52 52 6
GlifName: four
Width: 2437
VWidth: 4730
Flags: HMW
LayerCount: 2
Fore
SplineSet
2253 37 m 1
 2253 0 l 1
 1167 0 l 1
 1167 37 l 1
 1556 37 l 1
 1556 2908 l 1
 213 901 l 1
 2396 901 l 1
 2396 860 l 1
 143 860 l 1
 1618 3072 l 1
 1946 3072 l 1
 1946 37 l 1
 2253 37 l 1
EndSplineSet
Substitution2: "'ss03' Style Set 3 lookup 5-1" four.alt
EndChar

StartChar: five
Encoding: 53 53 7
GlifName: five
Width: 2048
VWidth: 4730
Flags: HMW
LayerCount: 2
Fore
SplineSet
1782 2703 m 1
 311 2703 l 1
 311 1544 l 1
 274 1544 l 1
 274 3072 l 1
 1745 3072 l 1
 1745 3297 l 1
 1782 3297 l 1
 1782 2703 l 1
188 422 m 1
 229 225 500 4 844 4 c 0
 1372 4 1495 557 1495 942 c 0
 1495 1409 1307 1868 942 1868 c 0
 610 1868 389 1663 328 1544 c 1
 295 1544 l 1
 361 1696 618 1925 1032 1925 c 0
 1569 1925 1925 1556 1925 942 c 0
 1925 410 1503 -41 885 -41 c 0
 467 -41 123 233 123 528 c 0
 123 696 233 782 356 782 c 0
 458 782 590 717 590 553 c 0
 590 410 475 328 356 328 c 0
 274 328 213 381 188 422 c 1
EndSplineSet
EndChar

StartChar: six
Encoding: 54 54 8
GlifName: six
Width: 2293
VWidth: 4730
Flags: HMW
LayerCount: 2
Fore
SplineSet
1761 1024 m 0
 1761 1573 1549 1946 1184 1946 c 0
 791 1946 614 1598 614 1147 c 1
 586 1147 l 1
 586 1626 737 2007 1274 2007 c 0
 1688 2007 2171 1720 2171 1024 c 0
 2171 410 1822 -41 1204 -41 c 0
 586 -41 205 410 205 1270 c 0
 205 2265 951 3113 1864 3113 c 1
 1864 3080 l 1
 1151 3080 623 2257 623 1401 c 1
 614 1147 l 1
 614 598 771 -4 1217 -4 c 0
 1663 -4 1761 557 1761 1024 c 0
EndSplineSet
EndChar

StartChar: seven
Encoding: 55 55 9
GlifName: seven
Width: 2068
VWidth: 4730
Flags: HMW
LayerCount: 2
Fore
SplineSet
688 311 m 0
 688 635 992 1061 1221 1507 c 0
 1381 1814 1630 2327 1798 2683 c 1
 201 2683 l 1
 201 2376 l 1
 164 2376 l 1
 164 3072 l 1
 2028 3072 l 1
 2028 3072 1545 2072 1262 1503 c 0
 1074 1118 991 991 991 811 c 0
 991 512 1221 451 1221 238 c 0
 1221 86 1138 -41 958 -41 c 0
 798 -41 688 53 688 311 c 0
EndSplineSet
EndChar

StartChar: eight
Encoding: 56 56 10
GlifName: eight
Width: 2252
VWidth: 4730
Flags: HMW
LayerCount: 2
Fore
SplineSet
655 2294 m 0
 655 1950 761 1597 1126 1597 c 0
 1491 1597 1597 1950 1597 2294 c 0
 1597 2638 1491 3076 1126 3076 c 0
 761 3076 655 2638 655 2294 c 0
246 2294 m 0
 246 2745 548 3113 1126 3113 c 0
 1704 3113 2007 2745 2007 2294 c 0
 2007 1843 1704 1569 1126 1569 c 0
 548 1569 246 1843 246 2294 c 0
573 778 m 0
 573 393 720 -4 1126 -4 c 0
 1532 -4 1679 393 1679 778 c 0
 1679 1163 1532 1556 1126 1556 c 0
 720 1556 573 1163 573 778 c 0
164 778 m 0
 164 1270 467 1589 1126 1589 c 0
 1785 1589 2089 1270 2089 778 c 0
 2089 286 1785 -41 1126 -41 c 0
 467 -41 164 286 164 778 c 0
EndSplineSet
EndChar

StartChar: A
Encoding: 65 65 12
GlifName: A_
Width: 3010
Flags: HMW
LayerCount: 2
Fore
SplineSet
82 37 m 1
 983 37 l 1
 983 0 l 1
 82 0 l 1
 82 37 l 1
1761 37 m 1
 2949 37 l 1
 2949 0 l 1
 1761 0 l 1
 1761 37 l 1
807 1020 m 1
 2130 1020 l 1
 2130 983 l 1
 807 983 l 1
 807 1020 l 1
1380 2572 m 1
 487 0 l 1
 442 0 l 1
 1540 3133 l 1
 1577 3133 l 1
 2662 0 l 1
 2212 0 l 1
 1380 2572 l 1
EndSplineSet
EndChar

StartChar: B
Encoding: 66 66 13
GlifName: B_
Width: 2580
Flags: HMW
LayerCount: 2
Fore
SplineSet
1270 1565 m 2
 819 1565 l 1
 819 1597 l 1
 1270 1597 l 2
 1581 1597 1884 1786 1884 2273 c 0
 1884 2760 1581 3035 1270 3035 c 2
 82 3035 l 1
 82 3072 l 1
 1270 3072 l 2
 1888 3072 2294 2846 2294 2314 c 0
 2294 1782 1929 1565 1270 1565 c 2
451 3072 m 1
 840 3072 l 1
 840 0 l 1
 451 0 l 1
 451 3072 l 1
1352 0 m 2
 82 0 l 1
 82 37 l 1
 1311 37 l 2
 1663 37 1966 373 1966 860 c 0
 1966 1347 1663 1556 1311 1556 c 2
 819 1556 l 1
 819 1589 l 1
 1352 1589 l 2
 1930 1589 2417 1392 2417 860 c 0
 2417 246 2011 0 1352 0 c 2
EndSplineSet
EndChar

StartChar: C
Encoding: 67 67 14
GlifName: C_
Width: 2744
Flags: HMW
LayerCount: 2
Fore
SplineSet
2511 3072 m 1
 2540 3072 l 1
 2540 2232 l 1
 2536 2404 2359 2740 2273 2826 c 1
 2511 3072 l 1
2540 2232 m 1
 2503 2232 l 1
 2487 2715 2069 3060 1618 3060 c 0
 905 3060 655 2281 655 1536 c 0
 655 791 905 12 1618 12 c 0
 2163 12 2528 398 2544 840 c 1
 2580 840 l 1
 2580 336 2163 -41 1577 -41 c 0
 746 -41 184 623 184 1536 c 0
 184 2449 746 3113 1577 3113 c 0
 2101 3113 2540 2736 2540 2232 c 1
2580 840 m 1
 2580 0 l 1
 2552 0 l 1
 2331 270 l 1
 2409 352 2572 668 2580 840 c 1
EndSplineSet
EndChar

StartChar: D
Encoding: 68 68 15
GlifName: D_
Width: 2867
Flags: HMW
LayerCount: 2
Fore
SplineSet
451 3072 m 1
 840 3072 l 1
 840 0 l 1
 451 0 l 1
 451 3072 l 1
1229 0 m 2
 82 0 l 1
 82 37 l 1
 1229 37 l 2
 1983 37 2232 791 2232 1536 c 0
 2232 2281 1942 3035 1229 3035 c 2
 82 3035 l 1
 82 3072 l 1
 1229 3072 l 2
 2142 3072 2703 2408 2703 1536 c 0
 2703 664 2101 0 1229 0 c 2
EndSplineSet
EndChar

StartChar: E
Encoding: 69 69 16
GlifName: E_
Width: 2396
Flags: HMW
LayerCount: 2
Fore
SplineSet
2236 922 m 1
 2273 922 l 1
 2273 0 l 1
 82 0 l 1
 82 37 l 1
 1495 37 l 2
 2056 37 2236 402 2236 922 c 1
451 3072 m 1
 840 3072 l 1
 840 0 l 1
 451 0 l 1
 451 3072 l 1
82 3072 m 1
 2232 3072 l 1
 2232 2232 l 1
 2195 2232 l 1
 2195 2670 2015 3035 1536 3035 c 2
 82 3035 l 1
 82 3072 l 1
1499 1139 m 1
 1499 1413 1318 1569 1085 1569 c 2
 758 1569 l 1
 758 1610 l 1
 1085 1610 l 2
 1318 1610 1499 1745 1499 2019 c 1
 1536 2019 l 1
 1536 1139 l 1
 1499 1139 l 1
EndSplineSet
EndChar

StartChar: F
Encoding: 70 70 17
GlifName: F_
Width: 2314
Flags: HMW
LayerCount: 2
Fore
SplineSet
82 3072 m 1
 2191 3072 l 1
 2191 2232 l 1
 2154 2232 l 1
 2154 2670 1974 3035 1495 3035 c 2
 82 3035 l 1
 82 3072 l 1
82 37 m 1
 1249 37 l 1
 1249 0 l 1
 82 0 l 1
 82 37 l 1
451 3072 m 1
 840 3072 l 1
 840 0 l 1
 451 0 l 1
 451 3072 l 1
1540 1098 m 1
 1540 1372 1380 1507 1024 1507 c 2
 758 1507 l 1
 758 1548 l 1
 1024 1548 l 2
 1380 1548 1540 1663 1540 1937 c 1
 1577 1937 l 1
 1577 1098 l 1
 1540 1098 l 1
EndSplineSet
EndChar

StartChar: G
Encoding: 71 71 18
GlifName: G_
Width: 2928
Flags: HMW
LayerCount: 2
Fore
SplineSet
2540 2232 m 1
 2540 2384 2359 2752 2273 2830 c 1
 2511 3072 l 1
 2540 3072 l 1
 2540 2232 l 1
1782 1188 m 1
 2888 1188 l 1
 2888 1147 l 1
 1782 1147 l 1
 1782 1188 l 1
2212 1159 m 1
 2642 1159 l 1
 2642 676 l 1
 2519 418 2184 -41 1516 -41 c 0
 664 -41 184 623 184 1536 c 0
 184 2449 746 3113 1577 3113 c 0
 2101 3113 2540 2736 2540 2232 c 1
 2503 2232 l 1
 2487 2719 2073 3060 1618 3060 c 0
 905 3060 655 2281 655 1536 c 0
 655 791 824 -4 1516 -4 c 0
 2024 -4 2171 422 2212 512 c 1
 2212 1159 l 1
EndSplineSet
EndChar

StartChar: H
Encoding: 72 72 19
GlifName: H_
Width: 3010
Flags: HMW
LayerCount: 2
Fore
SplineSet
758 1536 m 1
 2273 1536 l 1
 2273 1495 l 1
 758 1495 l 1
 758 1536 l 1
1782 37 m 1
 2949 37 l 1
 2949 0 l 1
 1782 0 l 1
 1782 37 l 1
82 37 m 1
 1249 37 l 1
 1249 0 l 1
 82 0 l 1
 82 37 l 1
1782 3072 m 1
 2949 3072 l 1
 2949 3035 l 1
 1782 3035 l 1
 1782 3072 l 1
82 3072 m 1
 1249 3072 l 1
 1249 3035 l 1
 82 3035 l 1
 82 3072 l 1
2191 3072 m 1
 2580 3072 l 1
 2580 0 l 1
 2191 0 l 1
 2191 3072 l 1
451 3072 m 1
 840 3072 l 1
 840 0 l 1
 451 0 l 1
 451 3072 l 1
EndSplineSet
EndChar

StartChar: I
Encoding: 73 73 20
GlifName: I_
Width: 1474
Flags: HMW
LayerCount: 2
Fore
SplineSet
82 37 m 1
 1413 37 l 1
 1413 0 l 1
 82 0 l 1
 82 37 l 1
82 3072 m 1
 1413 3072 l 1
 1413 3035 l 1
 82 3035 l 1
 82 3072 l 1
532 3072 m 1
 922 3072 l 1
 922 0 l 1
 532 0 l 1
 532 3072 l 1
EndSplineSet
EndChar

StartChar: J
Encoding: 74 74 21
GlifName: J_
Width: 1744
Flags: HMW
LayerCount: 2
Fore
SplineSet
352 3072 m 1
 1683 3072 l 1
 1683 3035 l 1
 352 3035 l 1
 352 3072 l 1
885 3072 m 1
 1274 3072 l 1
 1274 696 l 1
 1192 409 1033 -123 537 -123 c 0
 222 -123 61 143 61 348 c 0
 61 520 172 614 295 614 c 0
 397 614 524 541 524 373 c 0
 524 209 405 135 266 135 c 0
 205 135 160 160 152 164 c 1
 193 78 299 -86 537 -86 c 0
 852 -86 885 205 885 778 c 2
 885 3072 l 1
EndSplineSet
Substitution2: "'ss02' Style Set 2 lookup 4-1" J.alt
EndChar

StartChar: K
Encoding: 75 75 22
GlifName: K_
Width: 2785
Flags: HMW
LayerCount: 2
Fore
SplineSet
82 37 m 1
 1249 37 l 1
 1249 0 l 1
 82 0 l 1
 82 37 l 1
82 3072 m 1
 1249 3072 l 1
 1249 3035 l 1
 82 3035 l 1
 82 3072 l 1
451 3072 m 1
 840 3072 l 1
 840 0 l 1
 451 0 l 1
 451 3072 l 1
532 889 m 1
 479 889 l 1
 2093 3064 l 1
 2146 3064 l 1
 532 889 l 1
1495 37 m 1
 2765 37 l 1
 2765 0 l 1
 1495 0 l 1
 1495 37 l 1
2580 3035 m 1
 1597 3035 l 1
 1597 3072 l 1
 2580 3072 l 1
 2580 3035 l 1
2445 0 m 1
 1954 0 l 1
 1044 1614 l 1
 1294 1933 l 1
 2445 0 l 1
EndSplineSet
EndChar

StartChar: L
Encoding: 76 76 23
GlifName: L_
Width: 2334
Flags: HMW
LayerCount: 2
Fore
SplineSet
451 3072 m 1
 840 3072 l 1
 840 0 l 1
 451 0 l 1
 451 3072 l 1
82 3072 m 1
 1208 3072 l 1
 1208 3035 l 1
 82 3035 l 1
 82 3072 l 1
2253 0 m 1
 82 0 l 1
 82 37 l 1
 1475 37 l 2
 2118 37 2216 402 2216 922 c 1
 2253 922 l 1
 2253 0 l 1
EndSplineSet
EndChar

StartChar: M
Encoding: 77 77 24
GlifName: M_
Width: 3379
Flags: HMW
LayerCount: 2
Fore
SplineSet
3318 3072 m 1
 3318 3035 l 1
 3031 3035 l 1
 3031 0 l 1
 2642 0 l 1
 2642 3072 l 1
 3318 3072 l 1
102 37 m 1
 741 37 l 1
 741 0 l 1
 102 0 l 1
 102 37 l 1
2314 37 m 1
 3318 37 l 1
 3318 0 l 1
 2314 0 l 1
 2314 37 l 1
1733 532 m 1
 2621 3072 l 1
 2662 3072 l 1
 1581 -41 l 1
 1540 -41 l 1
 401 3072 l 1
 795 3072 l 1
 1733 532 l 1
393 3035 m 1
 82 3035 l 1
 82 3072 l 1
 434 3072 l 1
 434 0 l 1
 393 0 l 1
 393 3035 l 1
EndSplineSet
EndChar

StartChar: N
Encoding: 78 78 25
GlifName: N_
Width: 2990
Flags: HMW
LayerCount: 2
Fore
SplineSet
2458 3072 m 1
 2499 3072 l 1
 2499 -41 l 1
 2437 -41 l 1
 492 3072 l 1
 963 3072 l 1
 2458 631 l 1
 2458 3072 l 1
1982 3072 m 1
 2929 3072 l 1
 2929 3035 l 1
 1982 3035 l 1
 1982 3072 l 1
82 37 m 1
 1024 37 l 1
 1024 0 l 1
 82 0 l 1
 82 37 l 1
496 3035 m 1
 82 3035 l 1
 82 3072 l 1
 537 3072 l 1
 537 0 l 1
 496 0 l 1
 496 3035 l 1
EndSplineSet
EndChar

StartChar: O
Encoding: 79 79 26
GlifName: O_
Width: 2969
Flags: HMW
LayerCount: 2
Fore
SplineSet
1495 -41 m 0
 664 -41 184 664 184 1536 c 0
 184 2408 704 3113 1495 3113 c 0
 2286 3113 2806 2408 2806 1536 c 0
 2806 664 2326 -41 1495 -41 c 0
1495 3080 m 0
 823 3080 655 2281 655 1536 c 0
 655 791 782 -8 1495 -8 c 0
 2208 -8 2335 791 2335 1536 c 0
 2335 2281 2167 3080 1495 3080 c 0
EndSplineSet
EndChar

StartChar: P
Encoding: 80 80 27
GlifName: P_
Width: 2498
Flags: HMW
LayerCount: 2
Fore
SplineSet
451 3072 m 1
 840 3072 l 1
 840 0 l 1
 451 0 l 1
 451 3072 l 1
82 37 m 1
 1208 37 l 1
 1208 0 l 1
 82 0 l 1
 82 37 l 1
1290 1372 m 2
 758 1372 l 1
 758 1413 l 1
 1290 1413 l 2
 1683 1413 1905 1847 1905 2212 c 0
 1905 2577 1683 3035 1290 3035 c 2
 82 3035 l 1
 82 3072 l 1
 1290 3072 l 2
 2031 3072 2355 2744 2355 2212 c 0
 2355 1680 2031 1372 1290 1372 c 2
EndSplineSet
EndChar

StartChar: Q
Encoding: 81 81 28
GlifName: Q_
Width: 2969
Flags: HMW
LayerCount: 2
Fore
SplineSet
1495 -41 m 0
 664 -41 184 664 184 1536 c 0
 184 2408 704 3113 1495 3113 c 0
 2286 3113 2806 2408 2806 1536 c 0
 2806 664 2326 -41 1495 -41 c 0
1495 3080 m 0
 823 3080 655 2281 655 1536 c 0
 655 791 782 -8 1495 -8 c 0
 2208 -8 2335 791 2335 1536 c 0
 2335 2281 2167 3080 1495 3080 c 0
2191 -987 m 1
 2191 -1024 l 1
 1319 -1024 1249 -713 1249 -4 c 1
 1347 -29 1622 -29 1720 -4 c 1
 1720 -749 1781 -987 2191 -987 c 1
EndSplineSet
EndChar

StartChar: R
Encoding: 82 82 29
GlifName: R_
Width: 2846
Flags: HMW
LayerCount: 2
Fore
SplineSet
1434 1569 m 2
 819 1569 l 1
 819 1597 l 1
 1434 1597 l 2
 1827 1597 2048 1868 2048 2314 c 0
 2048 2760 1827 3035 1434 3035 c 2
 82 3035 l 1
 82 3072 l 1
 1434 3072 l 2
 2052 3072 2458 2846 2458 2314 c 0
 2458 1782 2093 1569 1434 1569 c 2
82 37 m 1
 1372 37 l 1
 1372 0 l 1
 82 0 l 1
 82 37 l 1
532 3072 m 1
 922 3072 l 1
 922 0 l 1
 532 0 l 1
 532 3072 l 1
2806 41 m 1
 2740 4 2605 -20 2437 -20 c 0
 1483 -20 2421 1556 1413 1556 c 2
 819 1556 l 1
 819 1577 l 1
 1495 1577 l 2
 2900 1577 2076 29 2580 29 c 0
 2666 29 2736 53 2793 78 c 1
 2806 41 l 1
EndSplineSet
Substitution2: "'ss01' Style Set 1 lookup 2-1" R.alt
EndChar

StartChar: S
Encoding: 83 83 30
GlifName: S_
Width: 2293
Flags: HMW
LayerCount: 2
Fore
SplineSet
1966 2273 m 1
 1929 2273 l 1
 1847 2810 1532 3068 1114 3068 c 0
 721 3068 512 2851 512 2527 c 0
 512 1769 2130 1949 2130 819 c 0
 2130 287 1766 -61 1188 -61 c 0
 549 -61 282 307 184 799 c 1
 221 799 l 1
 311 344 582 -20 1151 -20 c 0
 1585 -20 1868 221 1868 651 c 0
 1868 1491 225 1290 225 2355 c 0
 225 2806 618 3113 1073 3113 c 0
 1556 3113 1884 2851 1966 2273 c 1
1937 3113 m 1
 1966 3113 l 1
 1966 2273 l 1
 1941 2400 1815 2736 1729 2834 c 1
 1937 3113 l 1
213 -41 m 1
 184 -41 l 1
 184 799 l 1
 225 643 348 352 418 262 c 1
 213 -41 l 1
EndSplineSet
EndChar

StartChar: T
Encoding: 84 84 31
GlifName: T_
Width: 2580
Flags: HMW
LayerCount: 2
Fore
SplineSet
655 37 m 1
 1946 37 l 1
 1946 0 l 1
 655 0 l 1
 655 37 l 1
1106 3056 m 1
 1495 3056 l 1
 1495 0 l 1
 1106 0 l 1
 1106 3056 l 1
1905 3035 m 2
 696 3035 l 2
 217 3035 119 2670 119 2150 c 1
 82 2150 l 1
 82 3072 l 1
 2519 3072 l 1
 2519 2150 l 1
 2482 2150 l 1
 2482 2670 2384 3035 1905 3035 c 2
EndSplineSet
EndChar

StartChar: U
Encoding: 85 85 32
GlifName: U_
Width: 2846
Flags: HMW
LayerCount: 2
Fore
SplineSet
1987 3072 m 1
 2785 3072 l 1
 2785 3035 l 1
 1987 3035 l 1
 1987 3072 l 1
82 3072 m 1
 1249 3072 l 1
 1249 3035 l 1
 82 3035 l 1
 82 3072 l 1
2355 3072 m 1
 2396 3072 l 1
 2396 942 l 2
 2396 266 2122 -61 1475 -61 c 0
 766 -61 451 233 451 942 c 2
 451 3072 l 1
 840 3072 l 1
 840 983 l 2
 840 442 966 -8 1556 -8 c 0
 2072 -8 2355 295 2355 942 c 2
 2355 3072 l 1
EndSplineSet
EndChar

StartChar: V
Encoding: 86 86 33
GlifName: V_
Width: 2969
Flags: HMW
LayerCount: 2
Fore
SplineSet
2929 3035 m 1
 2028 3035 l 1
 2028 3072 l 1
 2929 3072 l 1
 2929 3035 l 1
1249 3035 m 1
 61 3035 l 1
 61 3072 l 1
 1249 3072 l 1
 1249 3035 l 1
1630 500 m 1
 2548 3072 l 1
 2597 3072 l 1
 1470 -61 l 1
 1434 -61 l 1
 348 3072 l 1
 799 3072 l 1
 1630 500 l 1
EndSplineSet
EndChar

StartChar: W
Encoding: 87 87 34
GlifName: W_
Width: 3993
Flags: HMW
LayerCount: 2
Fore
SplineSet
2154 1946 m 1
 1438 -41 l 1
 1393 -41 l 1
 426 3072 l 1
 836 3072 l 1
 1610 578 l 1
 2138 2032 l 1
 2154 1946 l 1
2236 1946 m 1
 2208 1991 l 1
 2568 3072 l 1
 2613 3072 l 1
 2236 1946 l 1
3953 3035 m 1
 3133 3035 l 1
 3133 3072 l 1
 3953 3072 l 1
 3953 3035 l 1
1905 3072 m 1
 2675 578 l 1
 3555 3072 l 1
 3600 3072 l 1
 2507 -41 l 1
 2462 -41 l 1
 1495 3072 l 1
 1905 3072 l 1
2929 3035 m 1
 61 3035 l 1
 61 3072 l 1
 2929 3072 l 1
 2929 3035 l 1
EndSplineSet
EndChar

StartChar: X
Encoding: 88 88 35
GlifName: X_
Width: 3010
Flags: HMW
LayerCount: 2
Fore
SplineSet
1532 1544 m 1
 1479 1544 l 1
 2355 3064 l 1
 2400 3064 l 1
 1532 1544 l 1
528 0 m 1
 475 0 l 1
 1524 1708 l 1
 1577 1708 l 1
 528 0 l 1
1823 37 m 1
 2970 37 l 1
 2970 0 l 1
 1823 0 l 1
 1823 37 l 1
61 37 m 1
 1044 37 l 1
 1044 0 l 1
 61 0 l 1
 61 37 l 1
1352 3035 m 1
 205 3035 l 1
 205 3072 l 1
 1352 3072 l 1
 1352 3035 l 1
2744 3035 m 1
 1843 3035 l 1
 1843 3072 l 1
 2744 3072 l 1
 2744 3035 l 1
2707 0 m 1
 2216 0 l 1
 451 3072 l 1
 926 3072 l 1
 2707 0 l 1
EndSplineSet
EndChar

StartChar: Y
Encoding: 89 89 36
GlifName: Y_
Width: 2908
Flags: HMW
LayerCount: 2
Fore
SplineSet
2867 3035 m 1
 2007 3035 l 1
 2007 3072 l 1
 2867 3072 l 1
 2867 3035 l 1
1249 3035 m 1
 61 3035 l 1
 61 3072 l 1
 1249 3072 l 1
 1249 3035 l 1
942 37 m 1
 2109 37 l 1
 2109 0 l 1
 942 0 l 1
 942 37 l 1
1675 1606 m 1
 2494 3064 l 1
 2544 3064 l 1
 1700 1569 l 1
 1700 0 l 1
 1311 0 l 1
 1311 1475 l 1
 332 3072 l 1
 782 3072 l 1
 1675 1606 l 1
EndSplineSet
EndChar

StartChar: Z
Encoding: 90 90 37
GlifName: Z_
Width: 2293
Flags: HMW
LayerCount: 2
Fore
SplineSet
143 3072 m 1
 2109 3072 l 1
 2109 3035 l 1
 492 37 l 1
 1413 37 l 2
 1974 37 2114 258 2114 778 c 1
 2150 778 l 1
 2150 0 l 1
 61 0 l 1
 61 37 l 1
 1679 3035 l 1
 881 3035 l 2
 320 3035 180 2814 180 2376 c 1
 143 2376 l 1
 143 3072 l 1
EndSplineSet
EndChar

StartChar: a
Encoding: 97 97 38
GlifName: a
Width: 2146
VWidth: 4730
Flags: HMW
LayerCount: 2
Fore
SplineSet
2142 258 m 1
 2048 53 1876 -41 1700 -41 c 0
 1507 -41 1323 33 1323 299 c 2
 1323 1249 l 2
 1323 1523 1291 1868 963 1868 c 0
 734 1868 549 1782 475 1700 c 1
 647 1749 770 1638 770 1507 c 0
 770 1343 630 1274 528 1274 c 0
 405 1274 315 1352 315 1499 c 0
 315 1753 671 1917 1044 1917 c 0
 1658 1917 1692 1581 1692 1249 c 2
 1692 201 l 2
 1692 107 1741 45 1839 45 c 0
 1913 45 2036 110 2114 270 c 1
 2142 258 l 1
1069 1049 m 2
 1536 1049 l 1
 1536 1008 l 1
 1069 1008 l 2
 758 1008 590 775 590 496 c 0
 590 238 684 45 885 45 c 0
 1127 45 1323 249 1323 741 c 1
 1352 741 l 1
 1352 233 1180 -41 725 -41 c 0
 401 -41 172 160 172 463 c 0
 172 807 463 1049 1069 1049 c 2
EndSplineSet
EndChar

StartChar: b
Encoding: 98 98 39
GlifName: b
Width: 2375
VWidth: 4730
Flags: HMW
LayerCount: 2
Fore
SplineSet
692 942 m 0
 692 1565 930 1921 1360 1921 c 0
 1806 1921 2228 1556 2228 942 c 0
 2228 328 1806 -41 1360 -41 c 0
 930 -41 692 319 692 942 c 0
721 942 m 0
 721 328 983 25 1290 25 c 0
 1634 25 1798 393 1798 942 c 0
 1798 1491 1634 1855 1290 1855 c 0
 983 1855 721 1556 721 942 c 0
352 3035 m 1
 90 3035 l 1
 90 3072 l 1
 721 3072 l 1
 721 0 l 1
 90 0 l 1
 90 37 l 1
 352 37 l 1
 352 3035 l 1
EndSplineSet
EndChar

StartChar: c
Encoding: 99 99 40
GlifName: c
Width: 1990
VWidth: 4730
Flags: HMW
LayerCount: 2
Fore
SplineSet
1729 1511 m 1
 1684 1724 1438 1884 1151 1884 c 0
 664 1884 582 1327 582 942 c 0
 582 475 676 4 1122 4 c 0
 1470 4 1676 254 1782 586 c 1
 1823 586 l 1
 1717 230 1499 -41 1085 -41 c 0
 548 -41 152 328 152 942 c 0
 152 1474 492 1925 1110 1925 c 0
 1528 1925 1790 1692 1790 1397 c 0
 1790 1229 1679 1143 1556 1143 c 0
 1454 1143 1323 1208 1323 1372 c 0
 1323 1515 1437 1597 1556 1597 c 0
 1638 1597 1713 1548 1729 1511 c 1
EndSplineSet
EndChar

StartChar: d
Encoding: 100 100 41
GlifName: d
Width: 2375
VWidth: 4730
Flags: HMW
LayerCount: 2
Fore
SplineSet
1688 942 m 0
 1688 319 1450 -41 1020 -41 c 0
 574 -41 152 328 152 942 c 0
 152 1556 574 1921 1020 1921 c 0
 1450 1921 1688 1565 1688 942 c 0
1659 942 m 0
 1659 1556 1397 1855 1090 1855 c 0
 746 1855 582 1491 582 942 c 0
 582 393 746 25 1090 25 c 0
 1397 25 1659 328 1659 942 c 0
2290 37 m 1
 2290 0 l 1
 1659 0 l 1
 1659 3035 l 1
 1397 3035 l 1
 1397 3072 l 1
 2028 3072 l 1
 2028 37 l 1
 2290 37 l 1
EndSplineSet
EndChar

StartChar: e
Encoding: 101 101 42
GlifName: e
Width: 2072
VWidth: 4730
Flags: HMW
LayerCount: 2
Fore
SplineSet
426 1049 m 1
 426 1090 l 1
 1507 1090 l 1
 1507 1393 1459 1888 1094 1888 c 0
 688 1888 582 1409 582 942 c 0
 582 475 697 0 1143 0 c 0
 1544 0 1807 262 1909 586 c 1
 1946 586 l 1
 1840 230 1561 -41 1106 -41 c 0
 569 -41 152 328 152 942 c 0
 152 1556 557 1925 1094 1925 c 0
 1704 1925 1942 1495 1942 1049 c 1
 426 1049 l 1
EndSplineSet
EndChar

StartChar: f
Encoding: 102 102 43
GlifName: f
Width: 1445
VWidth: 4730
Flags: HMW
LayerCount: 2
Fore
SplineSet
70 37 m 1
 1249 37 l 1
 1249 0 l 1
 70 0 l 1
 70 37 l 1
70 1884 m 1
 1331 1884 l 1
 1331 1847 l 1
 70 1847 l 1
 70 1884 l 1
1651 2802 m 1
 1622 2929 1504 3076 1221 3076 c 0
 893 3076 782 2732 782 2212 c 2
 782 0 l 1
 414 0 l 1
 414 2097 l 2
 414 2634 689 3113 1221 3113 c 0
 1553 3113 1724 2900 1724 2707 c 0
 1724 2539 1614 2454 1491 2454 c 0
 1389 2454 1262 2519 1262 2679 c 0
 1262 2839 1376 2904 1507 2904 c 0
 1573 2904 1631 2872 1651 2802 c 1
EndSplineSet
EndChar

StartChar: g
Encoding: 103 103 44
GlifName: g
Width: 2310
VWidth: 4730
Flags: HMW
LayerCount: 2
Fore
SplineSet
221 303 m 0
 221 606 623 705 963 705 c 1
 958 688 l 1
 782 688 500 614 500 434 c 0
 500 282 672 283 897 283 c 0
 1040 283 1073 287 1188 287 c 0
 1495 287 1831 221 1831 -336 c 0
 1831 -832 1422 -1065 971 -1065 c 0
 508 -1065 90 -901 90 -512 c 0
 90 -139 484 -20 668 -20 c 2
 684 -20 l 1
 500 -122 479 -287 479 -418 c 0
 479 -697 615 -1020 1008 -1020 c 0
 1422 -1020 1729 -799 1729 -422 c 0
 1729 -152 1483 -37 1217 -37 c 0
 1131 -37 921 -37 831 -37 c 0
 462 -37 221 49 221 303 c 0
582 1290 m 0
 582 987 602 709 926 709 c 0
 1168 709 1270 987 1270 1290 c 0
 1270 1593 1168 1888 926 1888 c 0
 684 1888 582 1593 582 1290 c 0
193 1290 m 0
 193 1741 594 1925 926 1925 c 0
 1258 1925 1659 1741 1659 1290 c 0
 1659 839 1258 672 926 672 c 0
 594 672 193 839 193 1290 c 0
2191 1679 m 1
 2171 1785 2081 1868 1921 1868 c 0
 1757 1868 1520 1757 1438 1401 c 1
 1409 1421 l 1
 1491 1794 1757 1905 1921 1905 c 0
 2130 1905 2245 1770 2245 1614 c 0
 2245 1430 2138 1368 2036 1368 c 0
 1934 1368 1831 1438 1831 1573 c 0
 1831 1688 1921 1765 2036 1765 c 0
 2106 1765 2175 1728 2191 1679 c 1
EndSplineSet
EndChar

StartChar: h
Encoding: 104 104 45
GlifName: h
Width: 2318
VWidth: 4730
Flags: HMW
LayerCount: 2
Fore
SplineSet
1602 1262 m 2
 1602 1606 1548 1868 1319 1868 c 0
 803 1868 721 1298 721 913 c 1
 692 901 l 1
 692 1302 750 1925 1389 1925 c 0
 1868 1925 1970 1663 1970 1307 c 2
 1970 0 l 1
 1602 0 l 1
 1602 1262 l 2
1339 37 m 1
 2232 37 l 1
 2232 0 l 1
 1339 0 l 1
 1339 37 l 1
90 37 m 1
 983 37 l 1
 983 0 l 1
 90 0 l 1
 90 37 l 1
352 3035 m 1
 90 3035 l 1
 90 3072 l 1
 721 3072 l 1
 721 0 l 1
 352 0 l 1
 352 3035 l 1
EndSplineSet
EndChar

StartChar: i
Encoding: 105 105 46
GlifName: i
Width: 1110
VWidth: 4730
Flags: HMW
LayerCount: 2
Fore
SplineSet
111 37 m 1
 1004 37 l 1
 1004 0 l 1
 111 0 l 1
 111 37 l 1
270 2867 m 0
 270 3002 381 3113 516 3113 c 0
 651 3113 762 3002 762 2867 c 0
 762 2732 651 2621 516 2621 c 0
 381 2621 270 2732 270 2867 c 0
373 1847 m 1
 111 1847 l 1
 111 1884 l 1
 741 1884 l 1
 741 0 l 1
 373 0 l 1
 373 1847 l 1
EndSplineSet
EndChar

StartChar: j
Encoding: 106 106 47
GlifName: j
Width: 1122
VWidth: 4730
Flags: HMW
LayerCount: 2
Fore
SplineSet
340 2867 m 0
 340 3002 451 3113 586 3113 c 0
 721 3113 831 3002 831 2867 c 0
 831 2732 721 2621 586 2621 c 0
 451 2621 340 2732 340 2867 c 0
803 1884 m 1
 803 -49 l 2
 803 -586 692 -1065 160 -1065 c 0
 -172 -1065 -344 -851 -344 -618 c 0
 -344 -450 -234 -365 -111 -365 c 0
 -9 -365 119 -422 119 -586 c 0
 119 -750 0 -815 -139 -815 c 0
 -205 -815 -266 -762 -274 -713 c 1
 -274 -856 -111 -1024 139 -1024 c 0
 508 -1024 434 -438 434 82 c 2
 434 1847 l 1
 90 1847 l 1
 90 1884 l 1
 803 1884 l 1
EndSplineSet
EndChar

StartChar: k
Encoding: 107 107 48
GlifName: k
Width: 2347
VWidth: 4730
Flags: HMW
LayerCount: 2
Fore
SplineSet
2146 0 m 1
 1683 0 l 1
 770 1069 l 1
 1802 1884 l 1
 1860 1884 l 1
 1077 1257 l 1
 2146 0 l 1
1356 37 m 1
 2302 37 l 1
 2302 0 l 1
 1356 0 l 1
 1356 37 l 1
2163 1847 m 1
 1298 1847 l 1
 1298 1884 l 1
 2163 1884 l 1
 2163 1847 l 1
90 37 m 1
 1090 37 l 1
 1090 0 l 1
 90 0 l 1
 90 37 l 1
434 3035 m 1
 90 3035 l 1
 90 3072 l 1
 803 3072 l 1
 803 0 l 1
 434 0 l 1
 434 3035 l 1
EndSplineSet
EndChar

StartChar: l
Encoding: 108 108 49
GlifName: l
Width: 1232
VWidth: 4730
Flags: HMW
LayerCount: 2
Fore
SplineSet
90 37 m 1
 1147 37 l 1
 1147 0 l 1
 90 0 l 1
 90 37 l 1
434 3035 m 1
 90 3035 l 1
 90 3072 l 1
 803 3072 l 1
 803 0 l 1
 434 0 l 1
 434 3035 l 1
EndSplineSet
EndChar

StartChar: m
Encoding: 109 109 50
GlifName: m
Width: 3403
VWidth: 4730
Flags: HMW
LayerCount: 2
Fore
SplineSet
1888 1307 m 2
 1888 0 l 1
 1520 0 l 1
 1520 1262 l 2
 1520 1606 1495 1868 1266 1868 c 0
 820 1868 721 1298 721 913 c 1
 692 901 l 1
 692 1302 762 1925 1335 1925 c 0
 1753 1925 1888 1663 1888 1307 c 2
90 37 m 1
 983 37 l 1
 983 0 l 1
 90 0 l 1
 90 37 l 1
1257 37 m 1
 2150 37 l 1
 2150 0 l 1
 1257 0 l 1
 1257 37 l 1
2425 37 m 1
 3318 37 l 1
 3318 0 l 1
 2425 0 l 1
 2425 37 l 1
352 1847 m 1
 90 1847 l 1
 90 1884 l 1
 721 1884 l 1
 721 0 l 1
 352 0 l 1
 352 1847 l 1
3056 1307 m 2
 3056 0 l 1
 2687 0 l 1
 2687 1262 l 2
 2687 1606 2646 1868 2417 1868 c 0
 1958 1868 1888 1298 1888 913 c 1
 1851 901 l 1
 1851 1302 1896 1925 2486 1925 c 0
 2904 1925 3056 1663 3056 1307 c 2
EndSplineSet
EndChar

StartChar: n
Encoding: 110 110 51
GlifName: n
Width: 2318
VWidth: 4730
Flags: HMW
LayerCount: 2
Fore
SplineSet
1602 1262 m 2
 1602 1606 1548 1868 1319 1868 c 0
 823 1868 721 1298 721 913 c 1
 692 901 l 1
 692 1302 766 1925 1389 1925 c 0
 1852 1925 1970 1663 1970 1307 c 2
 1970 0 l 1
 1602 0 l 1
 1602 1262 l 2
1339 37 m 1
 2232 37 l 1
 2232 0 l 1
 1339 0 l 1
 1339 37 l 1
90 37 m 1
 983 37 l 1
 983 0 l 1
 90 0 l 1
 90 37 l 1
352 1847 m 1
 90 1847 l 1
 90 1884 l 1
 721 1884 l 1
 721 0 l 1
 352 0 l 1
 352 1847 l 1
EndSplineSet
EndChar

StartChar: o
Encoding: 111 111 52
GlifName: o
Width: 2174
VWidth: 4730
Flags: HMW
LayerCount: 2
Fore
SplineSet
582 942 m 0
 582 557 644 -4 1090 -4 c 0
 1536 -4 1597 557 1597 942 c 0
 1597 1327 1536 1888 1090 1888 c 0
 644 1888 582 1327 582 942 c 0
152 942 m 0
 152 1474 512 1925 1090 1925 c 0
 1668 1925 2028 1474 2028 942 c 0
 2028 410 1668 -41 1090 -41 c 0
 512 -41 152 410 152 942 c 0
EndSplineSet
EndChar

StartChar: p
Encoding: 112 112 53
GlifName: p
Width: 2375
VWidth: 4730
Flags: HMW
LayerCount: 2
Fore
SplineSet
692 942 m 0
 692 1565 930 1921 1360 1921 c 0
 1806 1921 2228 1556 2228 942 c 0
 2228 328 1806 -41 1360 -41 c 0
 930 -41 692 319 692 942 c 0
721 942 m 0
 721 328 983 25 1290 25 c 0
 1634 25 1798 393 1798 942 c 0
 1798 1491 1634 1855 1290 1855 c 0
 983 1855 721 1556 721 942 c 0
90 -987 m 1
 983 -987 l 1
 983 -1024 l 1
 90 -1024 l 1
 90 -987 l 1
352 1847 m 1
 90 1847 l 1
 90 1884 l 1
 721 1884 l 1
 721 -1024 l 1
 352 -1024 l 1
 352 1847 l 1
EndSplineSet
EndChar

StartChar: q
Encoding: 113 113 54
GlifName: q
Width: 2375
VWidth: 4730
Flags: HMW
LayerCount: 2
Fore
SplineSet
1688 942 m 0
 1688 319 1450 -41 1020 -41 c 0
 574 -41 152 328 152 942 c 0
 152 1556 574 1921 1020 1921 c 0
 1450 1921 1688 1565 1688 942 c 0
1659 942 m 0
 1659 1556 1397 1855 1090 1855 c 0
 746 1855 582 1491 582 942 c 0
 582 393 746 25 1090 25 c 0
 1397 25 1659 328 1659 942 c 0
2290 -987 m 1
 2290 -1024 l 1
 1397 -1024 l 1
 1397 -987 l 1
 2290 -987 l 1
2290 1884 m 1
 2290 1847 l 1
 2028 1847 l 1
 2028 -1024 l 1
 1659 -1024 l 1
 1659 1884 l 1
 2290 1884 l 1
EndSplineSet
EndChar

StartChar: r
Encoding: 114 114 55
GlifName: r
Width: 1654
VWidth: 4730
Flags: HMW
LayerCount: 2
Fore
SplineSet
1511 1724 m 1
 1462 1835 1344 1888 1233 1888 c 0
 807 1888 721 1364 721 913 c 1
 692 913 l 1
 692 1413 778 1925 1233 1925 c 0
 1421 1925 1610 1794 1610 1593 c 0
 1610 1454 1528 1343 1372 1343 c 0
 1237 1343 1130 1417 1130 1569 c 0
 1130 1778 1396 1859 1511 1724 c 1
90 37 m 1
 983 37 l 1
 983 0 l 1
 90 0 l 1
 90 37 l 1
352 1847 m 1
 90 1847 l 1
 90 1884 l 1
 721 1884 l 1
 721 0 l 1
 352 0 l 1
 352 1847 l 1
EndSplineSet
EndChar

StartChar: s
Encoding: 115 115 56
GlifName: s
Width: 1732
VWidth: 4730
Flags: HMW
LayerCount: 2
Fore
SplineSet
1401 1552 m 1
 1381 1589 1290 1691 1257 1724 c 1
 1442 1925 l 1
 1470 1925 l 1
 1470 1352 l 1
 1438 1352 l 1
 1434 1401 1421 1511 1401 1552 c 1
1462 1352 m 1
 1434 1352 l 1
 1418 1598 1164 1880 799 1880 c 0
 594 1880 393 1774 393 1569 c 0
 393 1110 1606 1311 1606 582 c 0
 1606 217 1302 -41 905 -41 c 0
 520 -41 200 213 180 532 c 1
 209 532 l 1
 246 245 545 0 877 0 c 0
 1123 0 1372 103 1372 377 c 0
 1372 897 221 610 221 1372 c 0
 221 1634 406 1921 795 1921 c 0
 1196 1921 1462 1622 1462 1352 c 1
201 -41 m 1
 172 -41 l 1
 172 532 l 1
 209 532 l 1
 217 438 234 381 250 340 c 1
 279 299 364 184 389 164 c 1
 201 -41 l 1
EndSplineSet
EndChar

StartChar: t
Encoding: 116 116 57
GlifName: t
Width: 1302
VWidth: 4730
Flags: HMW
LayerCount: 2
Fore
SplineSet
49 1884 m 1
 1155 1884 l 1
 1155 1847 l 1
 49 1847 l 1
 49 1884 l 1
1278 418 m 1
 1180 156 971 -29 721 -29 c 0
 385 -29 348 230 348 455 c 2
 348 2294 l 1
 471 2294 635 2356 717 2417 c 1
 717 328 l 2
 717 123 761 70 872 70 c 0
 1011 70 1167 237 1245 430 c 1
 1278 418 l 1
EndSplineSet
EndChar

StartChar: u
Encoding: 117 117 58
GlifName: u
Width: 2318
VWidth: 4730
Flags: HMW
LayerCount: 2
Fore
SplineSet
721 1884 m 1
 721 623 l 2
 721 279 775 16 1004 16 c 0
 1500 16 1602 586 1602 971 c 1
 1630 983 l 1
 1630 582 1557 -41 934 -41 c 0
 471 -41 352 222 352 578 c 2
 352 1847 l 1
 90 1847 l 1
 90 1884 l 1
 721 1884 l 1
1970 37 m 1
 2232 37 l 1
 2232 0 l 1
 1602 0 l 1
 1602 1847 l 1
 1315 1847 l 1
 1315 1884 l 1
 1970 1884 l 1
 1970 37 l 1
EndSplineSet
EndChar

StartChar: v
Encoding: 118 118 59
GlifName: v
Width: 2195
VWidth: 4730
Flags: HMW
LayerCount: 2
Fore
SplineSet
2167 1847 m 1
 1421 1847 l 1
 1421 1884 l 1
 2167 1884 l 1
 2167 1847 l 1
1028 1847 m 1
 8 1847 l 1
 8 1884 l 1
 1028 1884 l 1
 1028 1847 l 1
1221 422 m 1
 1819 1884 l 1
 1868 1884 l 1
 1081 -41 l 1
 1040 -41 l 1
 250 1884 l 1
 659 1884 l 1
 1221 422 l 1
EndSplineSet
EndChar

StartChar: w
Encoding: 119 119 60
GlifName: w
Width: 3080
VWidth: 4730
Flags: HMW
LayerCount: 2
Fore
SplineSet
987 1847 m 1
 8 1847 l 1
 8 1884 l 1
 987 1884 l 1
 987 1847 l 1
3052 1847 m 1
 2224 1847 l 1
 2224 1884 l 1
 3052 1884 l 1
 3052 1847 l 1
1081 451 m 1
 1700 1925 l 1
 1745 1925 l 1
 2191 516 l 1
 2646 1884 l 1
 2695 1884 l 1
 2052 -41 l 1
 2007 -41 l 1
 1511 1360 l 1
 922 -41 l 1
 877 -41 l 1
 250 1884 l 1
 635 1884 l 1
 1081 451 l 1
EndSplineSet
EndChar

StartChar: x
Encoding: 120 120 61
GlifName: x
Width: 2232
VWidth: 4730
Flags: HMW
LayerCount: 2
Fore
SplineSet
1315 37 m 1
 2187 37 l 1
 2187 0 l 1
 1315 0 l 1
 1315 37 l 1
49 37 m 1
 791 37 l 1
 791 0 l 1
 49 0 l 1
 49 37 l 1
1049 1847 m 1
 90 1847 l 1
 90 1884 l 1
 1049 1884 l 1
 1049 1847 l 1
2126 1847 m 1
 1405 1847 l 1
 1405 1884 l 1
 2126 1884 l 1
 2126 1847 l 1
2028 0 m 1
 1577 0 l 1
 291 1884 l 1
 741 1884 l 1
 2028 0 l 1
344 0 m 1
 291 0 l 1
 1790 1884 l 1
 1843 1884 l 1
 344 0 l 1
EndSplineSet
EndChar

StartChar: y
Encoding: 121 121 62
GlifName: y
Width: 2207
VWidth: 4730
Flags: HMW
LayerCount: 2
Fore
SplineSet
963 1847 m 1
 8 1847 l 1
 8 1884 l 1
 963 1884 l 1
 963 1847 l 1
2245 1847 m 1
 1561 1847 l 1
 1561 1884 l 1
 2245 1884 l 1
 2245 1847 l 1
1339 377 m 1
 1143 -78 l 1
 205 1884 l 1
 614 1884 l 1
 1339 377 l 1
807 -831 m 1
 1942 1884 l 1
 1991 1884 l 1
 864 -811 l 2
 790 -979 729 -1081 573 -1081 c 0
 471 -1081 344 -1016 344 -860 c 0
 344 -725 438 -631 569 -631 c 0
 692 -631 787 -712 807 -831 c 1
EndSplineSet
EndChar

StartChar: z
Encoding: 122 122 63
GlifName: z
Width: 1814
VWidth: 4730
Flags: HMW
LayerCount: 2
Fore
SplineSet
791 1847 m 2
 324 1847 221 1594 221 1180 c 1
 184 1180 l 1
 184 1884 l 1
 1663 1884 l 1
 1663 1847 l 1
 512 37 l 1
 1028 37 l 2
 1589 37 1692 246 1692 754 c 1
 1729 754 l 1
 1729 0 l 1
 70 0 l 1
 70 37 l 1
 1217 1847 l 1
 791 1847 l 2
EndSplineSet
EndChar

StartChar: comma
Encoding: 44 44 65
GlifName: comma
Width: 880
Flags: HMW
LayerCount: 2
Fore
SplineSet
164 201 m 0
 164 336 282 442 438 442 c 0
 598 442 725 315 725 16 c 0
 725 -271 525 -618 156 -618 c 1
 156 -578 l 1
 480 -578 721 -271 672 147 c 1
 623 32 525 -41 406 -41 c 0
 246 -41 164 66 164 201 c 0
EndSplineSet
EndChar

StartChar: exclam
Encoding: 33 33 67
GlifName: exclam
Width: 1310
Flags: HMW
LayerCount: 2
Fore
SplineSet
893 2699 m 0
 848 1978 672 1466 672 852 c 1
 631 852 l 1
 631 1466 455 1978 410 2699 c 0
 410 2728 410 2752 410 2777 c 0
 410 2965 458 3105 651 3105 c 0
 844 3105 897 2965 897 2777 c 0
 897 2752 893 2728 893 2699 c 0
EndSplineSet
Refer: 1 46 N 1 0 0 1 246 0 2
EndChar

StartChar: quotesingle
Encoding: 39 39 70
GlifName: quotesingle
Width: 819
Flags: HMW
LayerCount: 2
Fore
SplineSet
610 2789 m 24
 565 2482 430 2450 430 1999 c 1
 389 1999 l 1
 389 2450 254 2482 209 2789 c 24
 205 2818 205 2838 205 2863 c 0
 205 3023 291 3113 410 3113 c 0
 529 3113 614 3023 614 2863 c 0
 614 2838 614 2818 610 2789 c 24
EndSplineSet
EndChar

StartChar: question
Encoding: 63 63 75
GlifName: question
Width: 2252
Flags: HMW
LayerCount: 2
Fore
SplineSet
991 1430 m 1
 1429 1532 1634 1913 1634 2294 c 0
 1634 2679 1548 3072 1061 3072 c 0
 643 3072 340 2740 311 2527 c 1
 327 2564 385 2621 479 2621 c 0
 598 2621 713 2539 713 2396 c 0
 713 2232 581 2167 479 2167 c 0
 356 2167 246 2253 246 2421 c 0
 246 2757 631 3113 1090 3113 c 0
 1668 3113 2048 2786 2048 2294 c 0
 2048 1823 1610 1442 1032 1405 c 1
 1032 856 l 1
 991 856 l 1
 991 1430 l 1
EndSplineSet
Refer: 1 46 N 1 0 0 1 610 0 2
EndChar

StartChar: parenleft
Encoding: 40 40 76
GlifName: parenleft
Width: 1482
Flags: HMW
LayerCount: 2
Fore
SplineSet
1421 -664 m 1
 1405 -696 l 1
 737 -409 266 377 266 1331 c 0
 266 2285 737 2990 1405 3277 c 1
 1421 3244 l 1
 913 2916 655 2117 655 1331 c 0
 655 545 913 -336 1421 -664 c 1
EndSplineSet
EndChar

StartChar: at
Encoding: 64 64 79
GlifName: at
Width: 4136
VWidth: 4730
Flags: HMW
LayerCount: 2
Fore
SplineSet
2540 1434 m 0
 2540 820 2188 287 1778 287 c 0
 1454 287 1163 516 1163 942 c 0
 1163 1556 1635 2167 2122 2167 c 0
 2454 2167 2540 1770 2540 1434 c 0
2511 1417 m 0
 2511 1589 2482 2114 2163 2114 c 0
 1860 2114 1577 1442 1577 934 c 0
 1577 660 1638 340 1851 340 c 0
 2170 340 2511 868 2511 1417 c 0
2417 860 m 2
 2712 2130 l 1
 3080 2130 l 1
 2785 860 l 2
 2773 807 2589 332 2904 332 c 0
 3473 332 3875 999 3875 1642 c 0
 3875 2375 3412 3199 2392 3199 c 0
 1221 3199 262 2126 262 864 c 0
 262 -393 987 -840 1716 -840 c 0
 2384 -840 2835 -639 3187 -238 c 1
 3215 -262 l 1
 2871 -663 2384 -877 1716 -877 c 0
 966 -877 225 -422 225 864 c 0
 225 2146 1196 3236 2396 3236 c 0
 3432 3236 3912 2392 3912 1642 c 0
 3912 987 3530 279 2830 279 c 0
 2465 279 2360 606 2417 860 c 2
EndSplineSet
EndChar

StartChar: dollar
Encoding: 36 36 80
GlifName: dollar
Width: 2273
Flags: HMW
LayerCount: 2
Fore
SplineSet
1282 3400 m 1
 1327 3400 l 1
 1327 -328 l 1
 1282 -328 l 1
 1282 3400 l 1
918 3400 m 1
 963 3400 l 1
 963 -328 l 1
 918 -328 l 1
 918 3400 l 1
1962 2548 m 1
 1937 2814 1639 3072 1217 3072 c 0
 783 3072 532 2802 532 2478 c 0
 532 1720 2109 1966 2109 860 c 0
 2109 287 1721 -61 1143 -61 c 0
 438 -61 123 328 123 594 c 0
 123 782 230 930 410 930 c 0
 533 930 672 839 672 659 c 0
 672 495 536 393 397 393 c 0
 299 393 221 455 188 500 c 1
 254 307 483 -20 1126 -20 c 0
 1560 -20 1823 270 1823 676 c 0
 1823 1516 246 1249 246 2314 c 0
 246 2806 704 3113 1200 3113 c 0
 1667 3113 2028 2810 2028 2478 c 0
 2028 2290 1921 2142 1741 2142 c 0
 1618 2142 1479 2233 1479 2413 c 0
 1479 2577 1614 2679 1753 2679 c 0
 1847 2679 1937 2609 1962 2548 c 1
EndSplineSet
EndChar

StartChar: numbersign
Encoding: 35 35 81
GlifName: numbersign
Width: 2580
Flags: HMW
LayerCount: 2
Fore
SplineSet
123 1049 m 1
 2335 1049 l 1
 2335 1012 l 1
 123 1012 l 1
 123 1049 l 1
246 2122 m 1
 2458 2122 l 1
 2458 2085 l 1
 246 2085 l 1
 246 2122 l 1
1851 3088 m 1
 1888 3092 l 1
 1479 -20 l 1
 1442 -25 l 1
 1851 3088 l 1
1061 3092 m 1
 1098 3092 l 1
 688 -20 l 1
 651 -20 l 1
 1061 3092 l 1
EndSplineSet
EndChar

StartChar: slash
Encoding: 47 47 82
GlifName: slash
Width: 2129
Flags: HMW
LayerCount: 2
Fore
SplineSet
1929 3195 m 1
 1966 3195 l 1
 201 -614 l 1
 164 -614 l 1
 1929 3195 l 1
EndSplineSet
EndChar

StartChar: percent
Encoding: 37 37 83
GlifName: percent
Width: 4096
Flags: HMW
LayerCount: 2
Fore
SplineSet
2765 860 m 0
 2765 442 2830 -4 3133 -4 c 0
 3436 -4 3502 442 3502 860 c 0
 3502 1278 3436 1724 3133 1724 c 0
 2830 1724 2765 1278 2765 860 c 0
2314 860 m 0
 2314 1446 2670 1761 3133 1761 c 0
 3596 1761 3953 1446 3953 860 c 0
 3953 274 3514 -41 3133 -41 c 0
 2670 -41 2314 274 2314 860 c 0
3088 3072 m 1
 3133 3072 l 1
 1008 0 l 1
 963 0 l 1
 3088 3072 l 1
594 2212 m 0
 594 1794 660 1348 963 1348 c 0
 1266 1348 1331 1794 1331 2212 c 0
 1331 2630 1266 3076 963 3076 c 0
 660 3076 594 2630 594 2212 c 0
143 2212 m 0
 143 2798 500 3113 963 3113 c 0
 1426 3113 1782 2798 1782 2212 c 0
 1782 1626 1344 1311 963 1311 c 0
 500 1311 143 1626 143 2212 c 0
EndSplineSet
EndChar

StartChar: hyphen
Encoding: 45 45 85
GlifName: hyphen
Width: 1474
Flags: HMW
LayerCount: 2
Fore
SplineSet
246 1147 m 1
 1229 1147 l 1
 1229 1106 l 1
 246 1106 l 1
 246 1147 l 1
EndSplineSet
EndChar

StartChar: plus
Encoding: 43 43 87
GlifName: plus
Width: 2170
Flags: HMW
LayerCount: 2
Fore
SplineSet
1065 451 m 1
 1065 2130 l 1
 1106 2130 l 1
 1106 451 l 1
 1065 451 l 1
246 1315 m 1
 1925 1315 l 1
 1925 1274 l 1
 246 1274 l 1
 246 1315 l 1
EndSplineSet
EndChar

StartChar: less
Encoding: 60 60 89
GlifName: less
Width: 2293
Flags: HMW
LayerCount: 2
Fore
SplineSet
246 1573 m 1
 246 1610 l 1
 2048 2458 l 1
 2048 2421 l 1
 246 1573 l 1
246 1565 m 1
 246 1602 l 1
 2048 754 l 1
 2048 717 l 1
 246 1565 l 1
EndSplineSet
EndChar

StartChar: backslash
Encoding: 92 92 91
GlifName: backslash
Width: 2129
Flags: HMW
LayerCount: 2
Fore
SplineSet
209 3195 m 1
 1966 -614 l 1
 1921 -614 l 1
 164 3195 l 1
 209 3195 l 1
EndSplineSet
EndChar

StartChar: bracketleft
Encoding: 91 91 92
GlifName: bracketleft
Width: 1331
Flags: HMW
LayerCount: 2
Fore
SplineSet
1208 -614 m 1
 225 -614 l 1
 225 -578 l 1
 1208 -578 l 1
 1208 -614 l 1
1208 3158 m 1
 225 3158 l 1
 225 3195 l 1
 1208 3195 l 1
 1208 3158 l 1
594 3195 m 1
 594 -614 l 1
 225 -614 l 1
 225 3195 l 1
 594 3195 l 1
EndSplineSet
EndChar

StartChar: braceleft
Encoding: 123 123 93
GlifName: braceleft
Width: 1114
VWidth: 4730
Flags: HMW
LayerCount: 2
Fore
SplineSet
991 3195 m 1
 991 3158 l 1
 737 3158 606 2908 606 2650 c 0
 606 2339 745 2175 745 1765 c 0
 745 1425 528 1364 225 1282 c 1
 225 1311 l 1
 348 1352 471 1454 471 1622 c 0
 471 1880 225 2065 225 2626 c 0
 225 2991 397 3195 991 3195 c 1
991 -614 m 1
 397 -614 225 -406 225 -41 c 0
 225 520 471 705 471 963 c 0
 471 1131 348 1229 225 1270 c 1
 225 1303 l 1
 528 1221 745 1159 745 819 c 0
 745 409 606 245 606 -66 c 0
 606 -324 737 -578 991 -578 c 1
 991 -614 l 1
EndSplineSet
EndChar

StartChar: bar
Encoding: 124 124 96
GlifName: bar
Width: 942
VWidth: 4730
Flags: HMW
LayerCount: 2
Fore
SplineSet
451 3195 m 1
 492 3195 l 1
 492 -1024 l 1
 451 -1024 l 1
 451 3195 l 1
EndSplineSet
EndChar

StartChar: cent
Encoding: 162 162 98
GlifName: cent
Width: 1990
VWidth: 4730
Flags: HMW
LayerCount: 2
Fore
SplineSet
1106 2273 m 1
 1106 -348 l 1
 1069 -348 l 1
 1069 2273 l 1
 1106 2273 l 1
EndSplineSet
Refer: 40 99 N 1 0 0 1 0 0 2
EndChar

StartChar: sterling
Encoding: 163 163 99
GlifName: sterling
Width: 2560
VWidth: 4730
Flags: HMW
LayerCount: 2
Fore
SplineSet
2466 643 m 1
 2466 49 2134 -123 1769 -123 c 0
 1208 -123 1024 123 766 123 c 0
 598 123 377 41 336 -82 c 1
 311 -82 l 1
 393 221 569 397 909 397 c 0
 1319 397 1483 258 1794 258 c 0
 2052 258 2429 307 2429 643 c 1
 2466 643 l 1
1905 1659 m 1
 1905 1622 l 1
 61 1622 l 1
 61 1659 l 1
 1905 1659 l 1
483 2253 m 0
 483 2826 914 3113 1573 3113 c 0
 2237 3113 2507 2777 2507 2441 c 0
 2507 2273 2388 2187 2265 2187 c 0
 2163 2187 2032 2253 2032 2417 c 0
 2032 2560 2146 2642 2265 2642 c 0
 2359 2642 2425 2573 2445 2540 c 1
 2445 2757 2200 3076 1606 3076 c 0
 1037 3076 938 2597 938 2294 c 0
 938 1888 1167 1618 1167 1311 c 0
 1167 574 279 553 332 -82 c 1
 295 -82 l 1
 217 487 815 807 815 1069 c 0
 815 1536 483 1782 483 2253 c 0
EndSplineSet
EndChar

StartChar: section
Encoding: 167 167 101
GlifName: section
Width: 1830
VWidth: 4730
Flags: HMW
LayerCount: 2
Fore
SplineSet
430 2638 m 0
 430 2163 1708 2204 1708 1577 c 0
 1708 1323 1491 1187 1270 1040 c 1
 1208 1065 l 1
 1306 1155 1397 1241 1397 1364 c 0
 1397 1901 254 1745 254 2490 c 0
 254 2916 623 3113 930 3113 c 0
 1290 3113 1642 2941 1642 2507 c 0
 1642 2339 1540 2212 1397 2212 c 0
 1274 2212 1176 2294 1176 2441 c 0
 1176 2572 1290 2666 1409 2666 c 0
 1454 2666 1512 2642 1528 2638 c 1
 1495 2855 1266 3031 930 3031 c 0
 672 3031 430 2871 430 2638 c 0
1675 664 m 0
 1675 238 1348 -41 877 -41 c 0
 517 -41 123 103 123 578 c 0
 123 746 226 872 369 872 c 0
 492 872 590 790 590 643 c 0
 590 512 475 418 356 418 c 0
 311 418 254 442 238 446 c 1
 291 176 582 41 877 41 c 0
 1299 41 1438 262 1438 455 c 0
 1438 930 156 868 156 1454 c 0
 156 1749 398 1942 537 2048 c 1
 614 2048 l 1
 598 1999 508 1872 508 1708 c 0
 508 1171 1675 1409 1675 664 c 0
EndSplineSet
EndChar

StartChar: asciitilde
Encoding: 126 126 104
GlifName: asciitilde
Width: 2818
VWidth: 4730
Flags: HMW
LayerCount: 2
Fore
SplineSet
872 1790 m 0
 655 1790 446 1700 446 1405 c 1
 410 1405 l 1
 410 1876 696 2089 1020 2089 c 0
 1471 2089 1512 1704 1905 1704 c 0
 2163 1704 2372 1794 2372 2089 c 1
 2408 2089 l 1
 2408 1618 2122 1405 1798 1405 c 0
 1278 1405 1294 1790 872 1790 c 0
EndSplineSet
EndChar

StartChar: copyright
Encoding: 169 169 105
GlifName: copyright
Width: 3563
Flags: HMW
LayerCount: 2
Fore
SplineSet
205 1536 m 0
 205 2408 910 3113 1782 3113 c 0
 2654 3113 3359 2408 3359 1536 c 0
 3359 664 2654 -41 1782 -41 c 0
 910 -41 205 664 205 1536 c 0
242 1536 m 0
 242 688 934 -4 1782 -4 c 0
 2630 -4 3322 688 3322 1536 c 0
 3322 2384 2630 3076 1782 3076 c 0
 934 3076 242 2384 242 1536 c 0
EndSplineSet
Refer: 14 67 N 0.6 0 0 0.6 868 614 2
EndChar

StartChar: registered
Encoding: 174 174 106
GlifName: registered
Width: 3563
Flags: HMW
LayerCount: 2
Fore
SplineSet
205 1536 m 0
 205 2408 910 3113 1782 3113 c 0
 2654 3113 3359 2408 3359 1536 c 0
 3359 664 2654 -41 1782 -41 c 0
 910 -41 205 664 205 1536 c 0
242 1536 m 0
 242 688 934 -4 1782 -4 c 0
 2630 -4 3322 688 3322 1536 c 0
 3322 2384 2630 3076 1782 3076 c 0
 934 3076 242 2384 242 1536 c 0
EndSplineSet
Refer: 29 82 N 0.6 0 0 0.6 975 606 2
EndChar

StartChar: logicalnot
Encoding: 172 172 107
GlifName: logicalnot
Width: 1990
Flags: HMW
LayerCount: 2
Fore
SplineSet
1708 2482 m 1
 246 2482 l 1
 246 2519 l 1
 1745 2519 l 1
 1745 1692 l 1
 1708 1692 l 1
 1708 2482 l 1
EndSplineSet
EndChar

StartChar: guillemotleft
Encoding: 171 171 108
GlifName: guillemotleft
Width: 2846
Flags: HMW
LayerCount: 2
Fore
SplineSet
1765 1589 m 1
 2621 614 l 1
 2601 594 l 1
 1249 1536 l 1
 1249 1638 l 1
 2601 2580 l 1
 2621 2560 l 1
 1765 1589 l 1
618 1589 m 1
 1475 614 l 1
 1454 594 l 1
 102 1536 l 1
 102 1638 l 1
 1454 2580 l 1
 1475 2560 l 1
 618 1589 l 1
EndSplineSet
EndChar

StartChar: mu
Encoding: 181 181 111
GlifName: mu
Width: 2318
VWidth: 4730
Flags: HMW
LayerCount: 2
Fore
SplineSet
1069 -504 m 0
 1204 -504 1311 -622 1311 -778 c 0
 1311 -938 1225 -1065 926 -1065 c 0
 639 -1065 393 -865 393 -496 c 2
 393 1315 l 1
 430 1315 l 1
 430 -496 l 2
 430 -848 659 -1048 987 -1028 c 1
 987 -1028 l 1
 885 -971 827 -868 827 -745 c 0
 827 -610 934 -504 1069 -504 c 0
EndSplineSet
Refer: 58 117 N 1 0 0 1 0 0 2
EndChar

StartChar: asciicircum
Encoding: 94 94 113
GlifName: asciicircum
Width: 2232
Flags: HMW
LayerCount: 2
Fore
SplineSet
1114 2961 m 1
 430 2560 l 1
 410 2580 l 1
 983 3154 l 1
 1249 3154 l 1
 1823 2580 l 1
 1802 2560 l 1
 1114 2961 l 1
EndSplineSet
EndChar

StartChar: degree
Encoding: 176 176 115
GlifName: degree
Width: 1310
Flags: HMW
LayerCount: 2
Fore
SplineSet
164 2785 m 0
 164 3055 385 3277 655 3277 c 0
 925 3277 1147 3055 1147 2785 c 0
 1147 2515 925 2294 655 2294 c 0
 385 2294 164 2515 164 2785 c 0
303 2785 m 0
 303 2584 454 2433 655 2433 c 0
 856 2433 1008 2584 1008 2785 c 0
 1008 2986 856 3138 655 3138 c 0
 454 3138 303 2986 303 2785 c 0
EndSplineSet
EndChar

StartChar: onequarter
Encoding: 188 188 119
GlifName: onequarter
Width: 2625
Flags: HMW
LayerCount: 2
Fore
SplineSet
2118 2662 m 1
 2154 2662 l 1
 201 -410 l 1
 164 -410 l 1
 2118 2662 l 1
EndSplineSet
Refer: 6 52 N 0.6 0 0 0.6 1106 -422 2
Refer: 3 49 N 0.6 0 0 0.6 -33 1458 2
EndChar

StartChar: onehalf
Encoding: 189 189 120
GlifName: onehalf
Width: 2744
Flags: HMW
LayerCount: 2
Fore
SplineSet
2118 2662 m 1
 2154 2662 l 1
 201 -410 l 1
 164 -410 l 1
 2118 2662 l 1
EndSplineSet
Refer: 4 50 N 0.6 0 0 0.6 1397 -414 2
Refer: 3 49 N 0.6 0 0 0.6 -33 1458 2
EndChar

StartChar: threequarters
Encoding: 190 190 121
GlifName: threequarters
Width: 2871
Flags: HMW
LayerCount: 2
Fore
SplineSet
2363 2662 m 1
 2400 2662 l 1
 446 -410 l 1
 410 -410 l 1
 2363 2662 l 1
EndSplineSet
Refer: 5 51 N 0.6 0 0 0.6 20 1450 2
Refer: 6 52 N 0.6 0 0 0.6 1352 -422 2
EndChar

StartChar: grave
Encoding: 96 96 123
GlifName: grave
Width: 1617
Flags: HMW
LayerCount: 2
Fore
SplineSet
369 2949 m 2
 291 2953 225 3014 225 3092 c 0
 225 3170 295 3257 410 3228 c 2
 1384 2970 l 1
 1372 2929 l 1
 369 2949 l 2
EndSplineSet
EndChar

StartChar: acute
Encoding: 180 180 124
GlifName: acute
Width: 1617
Flags: HMW
LayerCount: 2
Fore
SplineSet
1249 2949 m 2
 246 2929 l 1
 233 2970 l 1
 1208 3228 l 2
 1323 3257 1393 3170 1393 3092 c 0
 1393 3014 1327 2953 1249 2949 c 2
EndSplineSet
EndChar

StartChar: cedilla
Encoding: 184 184 128
GlifName: cedilla
Width: 2252
Flags: HMW
LayerCount: 2
Fore
SplineSet
1348 -573 m 0
 1348 -356 1155 -324 889 -324 c 1
 1257 168 l 1
 1311 168 l 1
 1065 -160 l 1
 1360 -172 1638 -263 1638 -492 c 0
 1638 -697 1442 -856 946 -856 c 1
 946 -819 l 1
 1188 -819 1348 -712 1348 -573 c 0
EndSplineSet
EndChar

StartChar: ring
Encoding: 730 730 271
GlifName: ring
Width: 1310
VWidth: 0
Flags: HMW
LayerCount: 2
Fore
SplineSet
287 2785 m 0
 287 2994 446 3154 655 3154 c 0
 864 3154 1024 2994 1024 2785 c 0
 1024 2576 864 2417 655 2417 c 0
 446 2417 287 2576 287 2785 c 0
430 2785 m 0
 430 2613 479 2454 655 2454 c 0
 831 2454 881 2613 881 2785 c 0
 881 2957 831 3117 655 3117 c 0
 479 3117 430 2957 430 2785 c 0
EndSplineSet
EndChar

StartChar: tilde
Encoding: 732 732 272
GlifName: tilde
Width: 1835
VWidth: 0
Flags: HMW
LayerCount: 2
Fore
SplineSet
520 2740 m 0
 385 2740 242 2671 242 2458 c 1
 205 2458 l 1
 205 2806 409 2978 610 2978 c 0
 897 2978 1102 2654 1315 2654 c 0
 1475 2654 1593 2724 1593 2937 c 1
 1630 2937 l 1
 1630 2548 1508 2417 1266 2417 c 0
 992 2417 762 2740 520 2740 c 0
EndSplineSet
EndChar

StartChar: AE
Encoding: 198 198 274
GlifName: A_E_
Width: 4096
Flags: HMW
LayerCount: 2
Fore
SplineSet
2150 3072 m 1
 2195 3072 l 1
 463 0 l 1
 410 0 l 1
 2150 3072 l 1
61 37 m 1
 963 37 l 1
 963 0 l 1
 61 0 l 1
 61 37 l 1
1008 1024 m 1
 2191 1024 l 1
 2191 983 l 1
 1008 983 l 1
 1008 1024 l 1
2150 3072 m 1
 2540 3072 l 1
 2540 0 l 1
 2150 0 l 1
 2150 3072 l 1
2150 3072 m 1
 3932 3072 l 1
 3932 2232 l 1
 3895 2232 l 1
 3895 2670 3715 3035 3236 3035 c 2
 2150 3035 l 1
 2150 3072 l 1
3973 0 m 1
 1782 0 l 1
 1782 37 l 1
 3195 37 l 2
 3756 37 3936 402 3936 922 c 1
 3973 922 l 1
 3973 0 l 1
3199 1139 m 1
 3199 1413 3018 1569 2785 1569 c 2
 2540 1569 l 1
 2540 1610 l 1
 2785 1610 l 2
 3018 1610 3199 1745 3199 2019 c 1
 3236 2019 l 1
 3236 1139 l 1
 3199 1139 l 1
EndSplineSet
EndChar

StartChar: ae
Encoding: 230 230 277
GlifName: ae
Width: 3125
VWidth: 4730
Flags: HMW
LayerCount: 2
Fore
SplineSet
287 1499 m 0
 287 1753 643 1917 1016 1917 c 0
 1548 1917 1581 1581 1581 1249 c 1
 1520 741 l 1
 1520 233 1274 -41 819 -41 c 0
 495 -41 143 78 143 463 c 0
 143 807 458 1049 1040 1049 c 2
 1384 1049 l 1
 1384 1008 l 1
 1040 1008 l 2
 729 1008 561 778 561 524 c 0
 561 250 668 0 893 0 c 0
 1126 0 1294 327 1294 741 c 2
 1294 1249 l 2
 1294 1523 1262 1864 934 1864 c 0
 705 1864 532 1782 446 1700 c 1
 618 1749 741 1638 741 1507 c 0
 741 1343 602 1274 500 1274 c 0
 377 1274 287 1352 287 1499 c 0
2585 1065 m 1
 2581 1393 2536 1888 2171 1888 c 0
 1765 1888 1659 1409 1659 942 c 0
 1659 475 1786 0 2232 0 c 0
 2617 0 2884 258 2986 586 c 1
 3023 586 l 1
 2917 230 2638 -41 2183 -41 c 0
 1646 -41 1311 328 1311 942 c 0
 1311 1556 1634 1925 2171 1925 c 0
 2781 1925 3019 1474 3019 1028 c 1
 1503 1028 l 1
 1503 1065 l 1
 2585 1065 l 1
EndSplineSet
EndChar

StartChar: uni2010
Encoding: 8208 8208 279
GlifName: uni2010
Width: 1474
Flags: HMW
LayerCount: 2
Fore
SplineSet
246 1147 m 1
 1229 1147 l 1
 1229 1106 l 1
 246 1106 l 1
 246 1147 l 1
EndSplineSet
EndChar

StartChar: uni2011
Encoding: 8209 8209 280
GlifName: uni2011
Width: 1175
Flags: HMW
LayerCount: 2
Fore
SplineSet
246 1147 m 1
 930 1147 l 1
 930 1106 l 1
 246 1106 l 1
 246 1147 l 1
EndSplineSet
EndChar

StartChar: figuredash
Encoding: 8210 8210 282
GlifName: figuredash
Width: 1822
Flags: HMW
LayerCount: 2
Fore
SplineSet
246 1147 m 1
 1577 1147 l 1
 1577 1106 l 1
 246 1106 l 1
 246 1147 l 1
EndSplineSet
EndChar

StartChar: perthousand
Encoding: 8240 8240 285
GlifName: perthousand
Width: 6021
Flags: HMW
LayerCount: 2
Fore
SplineSet
4690 860 m 0
 4690 442 4756 -4 5059 -4 c 0
 5362 -4 5427 442 5427 860 c 0
 5427 1278 5362 1724 5059 1724 c 0
 4756 1724 4690 1278 4690 860 c 0
4239 860 m 0
 4239 1446 4596 1761 5059 1761 c 0
 5522 1761 5878 1446 5878 860 c 0
 5878 274 5440 -41 5059 -41 c 0
 4596 -41 4239 274 4239 860 c 0
2765 860 m 0
 2765 442 2830 -4 3133 -4 c 0
 3436 -4 3502 442 3502 860 c 0
 3502 1278 3436 1724 3133 1724 c 0
 2830 1724 2765 1278 2765 860 c 0
2314 860 m 0
 2314 1446 2670 1761 3133 1761 c 0
 3596 1761 3953 1446 3953 860 c 0
 3953 274 3514 -41 3133 -41 c 0
 2670 -41 2314 274 2314 860 c 0
3088 3072 m 1
 3133 3072 l 1
 1008 0 l 1
 963 0 l 1
 3088 3072 l 1
594 2212 m 0
 594 1794 660 1348 963 1348 c 0
 1266 1348 1331 1794 1331 2212 c 0
 1331 2630 1266 3076 963 3076 c 0
 660 3076 594 2630 594 2212 c 0
143 2212 m 0
 143 2798 500 3113 963 3113 c 0
 1426 3113 1782 2798 1782 2212 c 0
 1782 1626 1344 1311 963 1311 c 0
 500 1311 143 1626 143 2212 c 0
EndSplineSet
EndChar

StartChar: uni2031
Encoding: 8241 8241 286
GlifName: uni2031
Width: 7987
Flags: HMW
LayerCount: 2
Fore
SplineSet
6656 860 m 0
 6656 442 6722 -4 7025 -4 c 0
 7328 -4 7393 442 7393 860 c 0
 7393 1278 7328 1724 7025 1724 c 0
 6722 1724 6656 1278 6656 860 c 0
6205 860 m 0
 6205 1446 6562 1761 7025 1761 c 0
 7488 1761 7844 1446 7844 860 c 0
 7844 274 7406 -41 7025 -41 c 0
 6562 -41 6205 274 6205 860 c 0
4690 860 m 0
 4690 442 4756 -4 5059 -4 c 0
 5362 -4 5427 442 5427 860 c 0
 5427 1278 5362 1724 5059 1724 c 0
 4756 1724 4690 1278 4690 860 c 0
4239 860 m 0
 4239 1446 4596 1761 5059 1761 c 0
 5522 1761 5878 1446 5878 860 c 0
 5878 274 5440 -41 5059 -41 c 0
 4596 -41 4239 274 4239 860 c 0
2765 860 m 0
 2765 442 2830 -4 3133 -4 c 0
 3436 -4 3502 442 3502 860 c 0
 3502 1278 3436 1724 3133 1724 c 0
 2830 1724 2765 1278 2765 860 c 0
2314 860 m 0
 2314 1446 2670 1761 3133 1761 c 0
 3596 1761 3953 1446 3953 860 c 0
 3953 274 3514 -41 3133 -41 c 0
 2670 -41 2314 274 2314 860 c 0
3088 3072 m 1
 3133 3072 l 1
 1008 0 l 1
 963 0 l 1
 3088 3072 l 1
594 2212 m 0
 594 1794 660 1348 963 1348 c 0
 1266 1348 1331 1794 1331 2212 c 0
 1331 2630 1266 3076 963 3076 c 0
 660 3076 594 2630 594 2212 c 0
143 2212 m 0
 143 2798 500 3113 963 3113 c 0
 1426 3113 1782 2798 1782 2212 c 0
 1782 1626 1344 1311 963 1311 c 0
 500 1311 143 1626 143 2212 c 0
EndSplineSet
EndChar

StartChar: uniFB00
Encoding: 64256 64256 290
GlifName: uniF_B_00
Width: 2580
VWidth: 4730
Flags: HMW
LayerCount: 2
Fore
SplineSet
61 37 m 1
 2445 37 l 1
 2445 0 l 1
 61 0 l 1
 61 37 l 1
61 1884 m 1
 2527 1884 l 1
 2527 1847 l 1
 61 1847 l 1
 61 1884 l 1
1794 2556 m 1
 1786 2683 1602 2871 1319 2871 c 0
 1008 2871 799 2527 799 2007 c 2
 799 0 l 1
 430 0 l 1
 430 1892 l 2
 430 2429 787 2908 1319 2908 c 0
 1651 2908 1864 2671 1864 2462 c 0
 1864 2294 1753 2208 1630 2208 c 0
 1528 2208 1401 2273 1401 2433 c 0
 1401 2593 1516 2658 1647 2658 c 0
 1713 2658 1769 2626 1794 2556 c 1
2839 2802 m 1
 2814 2929 2687 3076 2404 3076 c 0
 2076 3076 1966 2732 1966 2212 c 2
 1966 0 l 1
 1597 0 l 1
 1597 2097 l 2
 1597 2634 1872 3113 2404 3113 c 0
 2736 3113 2908 2900 2908 2707 c 0
 2908 2539 2798 2454 2675 2454 c 0
 2573 2454 2445 2519 2445 2679 c 0
 2445 2839 2560 2904 2691 2904 c 0
 2757 2904 2814 2872 2839 2802 c 1
EndSplineSet
Ligature2: "'liga' Standard Ligatures lookup 0-1" f f
LCarets2: 1 0
EndChar

StartChar: uniFB01
Encoding: 64257 64257 291
GlifName: uniF_B_01
Width: 2273
VWidth: 4730
Flags: HMW
LayerCount: 2
Fore
SplineSet
430 2097 m 2
 430 2634 746 3113 1360 3113 c 0
 1774 3113 1946 2899 1946 2666 c 0
 1946 2498 1835 2413 1712 2413 c 0
 1606 2413 1483 2482 1483 2634 c 0
 1483 2790 1598 2863 1729 2863 c 0
 1811 2863 1864 2810 1872 2761 c 1
 1868 2908 1725 3076 1360 3076 c 0
 926 3076 799 2732 799 2212 c 2
 799 0 l 1
 430 0 l 1
 430 2097 l 2
61 37 m 1
 2212 37 l 1
 2212 0 l 1
 61 0 l 1
 61 37 l 1
1556 1847 m 1
 61 1847 l 1
 61 1884 l 1
 1925 1884 l 1
 1925 0 l 1
 1556 0 l 1
 1556 1847 l 1
EndSplineSet
Ligature2: "'liga' Standard Ligatures lookup 0-1" f i
LCarets2: 1 0
EndChar

StartChar: uniFB02
Encoding: 64258 64258 292
GlifName: uniF_B_02
Width: 2314
VWidth: 4730
Flags: HMW
LayerCount: 2
Fore
SplineSet
61 37 m 1
 2294 37 l 1
 2294 0 l 1
 61 0 l 1
 61 37 l 1
61 1884 m 1
 1352 1884 l 1
 1352 1847 l 1
 61 1847 l 1
 61 1884 l 1
1638 2990 m 1
 2007 3154 l 1
 2007 0 l 1
 1638 0 l 1
 1638 2990 l 1
1712 2761 m 1
 1704 2900 1565 3076 1278 3076 c 0
 901 3076 799 2732 799 2212 c 2
 799 0 l 1
 430 0 l 1
 430 2097 l 2
 430 2634 746 3113 1278 3113 c 0
 1610 3113 1782 2899 1782 2666 c 0
 1782 2498 1671 2413 1548 2413 c 0
 1446 2413 1319 2470 1319 2634 c 0
 1319 2798 1438 2863 1577 2863 c 0
 1667 2863 1704 2761 1712 2761 c 1
EndSplineSet
Ligature2: "'liga' Standard Ligatures lookup 0-1" f l
LCarets2: 1 0
EndChar

StartChar: uniFB03
Encoding: 64259 64259 293
GlifName: uniF_B_03
Width: 3440
VWidth: 4730
Flags: HMW
LayerCount: 2
Fore
SplineSet
1597 2097 m 2
 1597 2634 1913 3113 2527 3113 c 0
 2941 3113 3113 2899 3113 2666 c 0
 3113 2498 3002 2413 2879 2413 c 0
 2773 2413 2650 2482 2650 2634 c 0
 2650 2790 2765 2863 2896 2863 c 0
 2978 2863 3031 2810 3039 2761 c 1
 3035 2908 2892 3076 2527 3076 c 0
 2093 3076 1966 2732 1966 2212 c 2
 1966 0 l 1
 1597 0 l 1
 1597 2097 l 2
61 37 m 1
 3379 37 l 1
 3379 0 l 1
 61 0 l 1
 61 37 l 1
430 1892 m 2
 430 2429 787 2908 1319 2908 c 0
 1651 2908 1864 2671 1864 2462 c 0
 1864 2294 1753 2208 1630 2208 c 0
 1528 2208 1401 2273 1401 2433 c 0
 1401 2593 1516 2658 1647 2658 c 0
 1713 2658 1769 2626 1794 2556 c 1
 1786 2683 1602 2871 1319 2871 c 0
 1008 2871 799 2527 799 2007 c 2
 799 0 l 1
 430 0 l 1
 430 1892 l 2
2724 1847 m 1
 61 1847 l 1
 61 1884 l 1
 3092 1884 l 1
 3092 0 l 1
 2724 0 l 1
 2724 1847 l 1
EndSplineSet
Ligature2: "'liga' Standard Ligatures lookup 0-1" f f i
LCarets2: 2 0 0
EndChar

StartChar: uniFB04
Encoding: 64260 64260 294
GlifName: uniF_B_04
Width: 3522
VWidth: 4730
Flags: HMW
LayerCount: 2
Fore
SplineSet
61 37 m 1
 3461 37 l 1
 3461 0 l 1
 61 0 l 1
 61 37 l 1
61 1884 m 1
 2519 1884 l 1
 2519 1847 l 1
 61 1847 l 1
 61 1884 l 1
2806 2990 m 1
 3174 3154 l 1
 3174 0 l 1
 2806 0 l 1
 2806 2990 l 1
1794 2556 m 1
 1786 2683 1602 2871 1319 2871 c 0
 1008 2871 799 2527 799 2007 c 2
 799 0 l 1
 430 0 l 1
 430 1892 l 2
 430 2429 787 2908 1319 2908 c 0
 1651 2908 1864 2671 1864 2462 c 0
 1864 2294 1753 2208 1630 2208 c 0
 1528 2208 1401 2273 1401 2433 c 0
 1401 2593 1516 2658 1647 2658 c 0
 1713 2658 1769 2626 1794 2556 c 1
2879 2761 m 1
 2871 2900 2732 3076 2445 3076 c 0
 2068 3076 1966 2732 1966 2212 c 2
 1966 0 l 1
 1597 0 l 1
 1597 2097 l 2
 1597 2634 1913 3113 2445 3113 c 0
 2777 3113 2949 2899 2949 2666 c 0
 2949 2498 2839 2413 2716 2413 c 0
 2614 2413 2486 2470 2486 2634 c 0
 2486 2798 2605 2863 2744 2863 c 0
 2834 2863 2871 2761 2879 2761 c 1
EndSplineSet
Ligature2: "'liga' Standard Ligatures lookup 0-1" f f l
LCarets2: 2 0 0
EndChar

StartChar: ogonek
Encoding: 731 731 295
GlifName: ogonek
Width: 2252
Flags: HMW
LayerCount: 2
Fore
SplineSet
1589 -463 m 1
 1528 -578 1409 -762 1118 -762 c 0
 909 -762 676 -656 676 -410 c 0
 676 -82 995 94 1245 176 c 1
 1257 152 l 1
 1130 82 1057 -107 1057 -332 c 0
 1057 -508 1135 -668 1274 -668 c 0
 1421 -668 1495 -562 1561 -451 c 1
 1589 -463 l 1
EndSplineSet
EndChar

StartChar: dotlessi
Encoding: 305 305 296
GlifName: dotlessi
Width: 1105
VWidth: 4730
Flags: HMW
LayerCount: 2
Fore
SplineSet
82 37 m 1
 1024 37 l 1
 1024 0 l 1
 82 0 l 1
 82 37 l 1
369 1847 m 1
 82 1847 l 1
 82 1884 l 1
 737 1884 l 1
 737 0 l 1
 369 0 l 1
 369 1847 l 1
EndSplineSet
EndChar

StartChar: uni0237
Encoding: 567 567 297
GlifName: uni0237
Width: 1142
VWidth: 4730
Flags: HMW
LayerCount: 2
Fore
SplineSet
823 1884 m 1
 823 -49 l 2
 823 -586 712 -1065 180 -1065 c 0
 -152 -1065 -324 -851 -324 -618 c 0
 -324 -450 -213 -365 -90 -365 c 0
 12 -365 139 -422 139 -586 c 0
 139 -750 20 -815 -119 -815 c 0
 -185 -815 -242 -762 -250 -713 c 1
 -250 -856 -90 -1024 160 -1024 c 0
 529 -1024 455 -438 455 82 c 2
 455 1847 l 1
 86 1847 l 1
 86 1884 l 1
 823 1884 l 1
EndSplineSet
EndChar

StartChar: kgreenlandic
Encoding: 312 312 306
GlifName: kgreenlandic
Width: 2367
VWidth: 4730
Flags: HMW
LayerCount: 2
Fore
SplineSet
2167 0 m 1
 1704 0 l 1
 791 1069 l 1
 1823 1884 l 1
 1884 1884 l 1
 1098 1257 l 1
 2167 0 l 1
1352 37 m 1
 2322 37 l 1
 2322 0 l 1
 1352 0 l 1
 1352 37 l 1
2183 1847 m 1
 1270 1847 l 1
 1270 1884 l 1
 2183 1884 l 1
 2183 1847 l 1
86 37 m 1
 1110 37 l 1
 1110 0 l 1
 86 0 l 1
 86 37 l 1
455 1847 m 1
 86 1847 l 1
 86 1884 l 1
 823 1884 l 1
 823 0 l 1
 455 0 l 1
 455 1847 l 1
EndSplineSet
EndChar

StartChar: breve
Encoding: 728 728 307
GlifName: breve
Width: 1146
VWidth: 4730
Flags: HMW
LayerCount: 2
Fore
SplineSet
160 3109 m 1
 160 2908 352 2806 573 2806 c 0
 794 2806 987 2908 987 3109 c 1
 1024 3109 l 1
 1024 2859 942 2580 573 2580 c 0
 204 2580 123 2859 123 3109 c 1
 160 3109 l 1
EndSplineSet
EndChar

StartChar: thorn
Encoding: 254 254 318
GlifName: thorn
Width: 2347
VWidth: 4730
Flags: HMW
LayerCount: 2
Fore
SplineSet
688 942 m 0
 688 1565 926 1921 1356 1921 c 0
 1802 1921 2224 1556 2224 942 c 0
 2224 328 1802 -41 1356 -41 c 0
 926 -41 688 319 688 942 c 0
717 942 m 0
 717 328 979 25 1286 25 c 0
 1630 25 1794 393 1794 942 c 0
 1794 1491 1630 1855 1286 1855 c 0
 979 1855 717 1556 717 942 c 0
61 -987 m 1
 1004 -987 l 1
 1004 -1024 l 1
 61 -1024 l 1
 61 -987 l 1
348 3035 m 1
 61 3035 l 1
 61 3072 l 1
 717 3072 l 1
 717 -1024 l 1
 348 -1024 l 1
 348 3035 l 1
EndSplineSet
EndChar

StartChar: Thorn
Encoding: 222 222 319
GlifName: T_horn
Width: 2478
Flags: HMW
LayerCount: 2
Fore
SplineSet
430 3072 m 1
 819 3072 l 1
 819 0 l 1
 430 0 l 1
 430 3072 l 1
61 37 m 1
 1188 37 l 1
 1188 0 l 1
 61 0 l 1
 61 37 l 1
61 3072 m 1
 1188 3072 l 1
 1188 3035 l 1
 61 3035 l 1
 61 3072 l 1
1270 737 m 2
 737 737 l 1
 737 774 l 1
 1270 774 l 2
 1663 774 1884 1232 1884 1597 c 0
 1884 1962 1663 2421 1270 2421 c 2
 737 2421 l 1
 737 2458 l 1
 1270 2458 l 2
 2011 2458 2335 2129 2335 1597 c 0
 2335 1065 2011 737 1270 737 c 2
EndSplineSet
EndChar

StartChar: Lslash
Encoding: 321 321 324
GlifName: L_slash
Width: 2334
Flags: HMW
LayerCount: 2
Fore
SplineSet
61 1475 m 1
 1475 2376 l 1
 1475 2331 l 1
 61 1430 l 1
 61 1475 l 1
EndSplineSet
Refer: 23 76 N 1 0 0 1 0 0 2
EndChar

StartChar: lslash
Encoding: 322 322 325
GlifName: lslash
Width: 1232
VWidth: 4730
Flags: HMW
LayerCount: 2
Fore
SplineSet
49 1638 m 1
 1217 2376 l 1
 1217 2327 l 1
 49 1589 l 1
 49 1638 l 1
EndSplineSet
Refer: 49 108 N 1 0 0 1 0 0 2
EndChar

StartChar: eth
Encoding: 240 240 329
GlifName: eth
Width: 2293
VWidth: 4730
Flags: HMW
LayerCount: 2
Fore
SplineSet
451 2580 m 1
 2171 2580 l 1
 2171 2544 l 1
 451 2544 l 1
 451 2580 l 1
2089 1270 m 0
 2089 410 1708 -41 1090 -41 c 0
 472 -41 123 410 123 1024 c 0
 123 1720 606 2007 1020 2007 c 0
 1557 2007 1708 1626 1708 1147 c 1
 1679 1147 l 1
 1679 1606 1499 1946 1110 1946 c 0
 745 1946 532 1573 532 1024 c 0
 532 557 631 -4 1077 -4 c 0
 1523 -4 1679 598 1679 1147 c 1
 1671 1389 l 1
 1671 2171 1143 3080 430 3080 c 1
 430 3113 l 1
 1343 3113 2089 2265 2089 1270 c 0
EndSplineSet
EndChar

StartChar: OE
Encoding: 338 338 330
GlifName: O_E_
Width: 3891
Flags: HMW
LayerCount: 2
Fore
SplineSet
1610 3035 m 1025,0,0
635 1536 m 0,0,0
 635 791 856 37 1610 37 c 1,0,0
 1569 0 l 1,0,0
 738 0 164 623 164 1536 c 0,0,0
 164 2449 738 3072 1569 3072 c 1,0,0
 1610 3035 l 1,0,0
 856 3035 635 2281 635 1536 c 0,0,0
EndSplineSet
Refer: 16 69 N 1 0 0 1 1495 0 2
EndChar

StartChar: germandbls
Encoding: 223 223 332
GlifName: germandbls
Width: 2789
VWidth: 4730
Flags: HMW
LayerCount: 2
Fore
SplineSet
1405 1651 m 1
 1405 1679 l 1
 1933 1679 2089 2077 2089 2339 c 0
 2089 2634 1954 3080 1528 3080 c 0
 979 3080 799 2552 799 1970 c 2
 799 0 l 1
 430 0 l 1
 430 2011 l 2
 430 2720 860 3113 1528 3113 c 0
 2114 3113 2503 2761 2503 2380 c 0
 2503 1970 2228 1651 1405 1651 c 1
61 37 m 1
 1167 37 l 1
 1167 0 l 1
 61 0 l 1
 61 37 l 1
2626 655 m 0
 2626 245 2261 -41 1847 -41 c 0
 1556 -41 1323 180 1323 557 c 0
 1323 725 1434 823 1577 823 c 0
 1700 823 1798 741 1798 594 c 0
 1798 463 1684 369 1565 369 c 0
 1471 369 1401 430 1368 496 c 1
 1384 201 1589 0 1827 0 c 0
 2151 0 2212 393 2212 655 c 0
 2212 1040 2097 1642 1405 1642 c 1
 1405 1671 l 1
 2392 1671 2626 1187 2626 655 c 0
EndSplineSet
EndChar

StartChar: circumflex
Encoding: 710 710 335
GlifName: circumflex
Width: 1576
Flags: HMW
LayerCount: 2
Fore
SplineSet
786 2970 m 1
 225 2683 l 1
 205 2703 l 1
 655 3154 l 1
 922 3154 l 1
 1372 2703 l 1
 1352 2683 l 1
 786 2970 l 1
EndSplineSet
EndChar

StartChar: caron
Encoding: 711 711 336
GlifName: caron
Width: 1576
Flags: HMW
LayerCount: 2
Fore
SplineSet
786 2929 m 1
 1352 3215 l 1
 1372 3195 l 1
 922 2744 l 1
 655 2744 l 1
 205 3195 l 1
 225 3215 l 1
 786 2929 l 1
EndSplineSet
EndChar

StartChar: pi
Encoding: 960 960 337
GlifName: pi
Width: 2379
VWidth: 4730
Flags: HMW
LayerCount: 2
Fore
SplineSet
2236 422 m 1
 2142 135 1995 -41 1794 -41 c 0
 1601 -41 1417 57 1417 299 c 2
 1417 1720 l 1
 1786 1720 l 1
 1786 365 l 2
 1786 283 1839 217 1937 217 c 0
 2035 217 2126 274 2208 438 c 1
 2236 422 l 1
426 -41 m 0
 258 -41 184 54 184 156 c 0
 184 435 643 336 643 1143 c 2
 643 1843 l 1
 872 1843 l 1
 872 995 l 2
 872 348 705 -41 426 -41 c 0
2154 1884 m 1
 2154 1516 l 1
 205 1516 l 1
 205 1208 l 1
 168 1208 l 1
 168 1884 l 1
 2154 1884 l 1
EndSplineSet
EndChar

StartChar: uni1E9E
Encoding: 7838 7838 338
GlifName: uni1E_9E_
Width: 3280
VWidth: 4730
Flags: HMWO
LayerCount: 2
Fore
SplineSet
61 37 m 1
 1208 37 l 1
 1208 0 l 1
 61 0 l 1
 61 37 l 1
2142 1659 m 5
 2021.64561473 1677.62276381 1869.32703129 1686.33137867 1733 1700 c 5
 2691 2884 l 1
 2539 2970 2265 3076 1896 3076 c 0
 1183 3076 840 2470 840 1765 c 2
 840 0 l 1
 430 0 l 1
 430 1806 l 2
 430 2637 1065 3113 1896 3113 c 0
 2523 3113 2871 2842 2994 2707 c 1
 2142 1659 l 5
1311 479 m 1
 1323 266 1569 8 2011 8 c 0
 2498 8 2683 393 2683 778 c 0
 2683 1081 2630 1663 1733 1663 c 1
 1733 1700 l 1
 2925 1700 3117 1229 3117 778 c 0
 3117 246 2671 -41 2093 -41 c 0
 1511 -41 1249 262 1249 557 c 0
 1249 725 1352 823 1495 823 c 0
 1618 823 1716 741 1716 594 c 0
 1716 463 1602 369 1483 369 c 0
 1397 369 1327 430 1311 479 c 1
EndSplineSet
EndChar

StartChar: uni203D
Encoding: 8253 8253 339
GlifName: uni203D_
Width: 2457
Flags: HMW
LayerCount: 2
Fore
SplineSet
1499 1982 m 0
 1454 1589 1237 1139 1237 852 c 1
 1196 852 l 1
 1196 1139 1061 1589 1016 1982 c 0
 1012 2011 1012 2035 1012 2060 c 0
 1012 2175 1064 2367 1257 2367 c 0
 1450 2367 1503 2175 1503 2060 c 0
 1503 2035 1503 2011 1499 1982 c 0
287 2216 m 0
 287 2593 671 3113 1335 3113 c 0
 1953 3113 2335 2785 2335 2253 c 0
 2335 1761 1835 1372 1339 1372 c 1
 1339 1401 l 1
 1695 1446 1962 1888 1962 2294 c 0
 1962 2679 1687 3043 1241 3043 c 0
 692 3043 372 2588 352 2314 c 1
 372 2363 426 2417 520 2417 c 0
 639 2417 754 2334 754 2191 c 0
 754 2027 622 1962 520 1962 c 0
 397 1962 287 2048 287 2216 c 0
EndSplineSet
Refer: 1 46 N 1 0 0 1 815 0 2
EndChar

StartChar: R.alt
Encoding: 65536 -1 340
GlifName: R_.alt
Width: 2764
Flags: HMW
LayerCount: 2
Fore
SplineSet
1434 1569 m 2
 819 1569 l 1
 819 1597 l 1
 1434 1597 l 2
 1827 1597 2048 1868 2048 2314 c 0
 2048 2760 1827 3035 1434 3035 c 2
 82 3035 l 1
 82 3072 l 1
 1434 3072 l 2
 2052 3072 2458 2846 2458 2314 c 0
 2458 1782 2093 1569 1434 1569 c 2
82 37 m 1
 1372 37 l 1
 1372 0 l 1
 82 0 l 1
 82 37 l 1
532 3072 m 1
 922 3072 l 1
 922 0 l 1
 532 0 l 1
 532 3072 l 1
2724 0 m 1
 2658 0 2584 0 2437 0 c 0
 1483 0 2380 1556 1413 1556 c 2
 819 1556 l 1
 819 1577 l 1
 1495 1577 l 2
 2900 1577 2117 37 2580 37 c 0
 2666 37 2667 37 2724 37 c 1
 2724 0 l 1
EndSplineSet
EndChar

StartChar: J.alt
Encoding: 65537 -1 341
GlifName: J_.alt
Width: 2215
Flags: HMW
LayerCount: 2
Fore
SplineSet
864 3072 m 1
 2154 3072 l 1
 2154 3035 l 1
 864 3035 l 1
 864 3072 l 1
1356 3072 m 1
 1745 3072 l 1
 1745 1147 l 2
 1745 492 1421 -41 762 -41 c 0
 283 -41 82 307 82 594 c 0
 82 848 233 983 397 983 c 0
 540 983 668 909 668 721 c 0
 668 578 532 463 393 463 c 0
 282 463 152 516 123 610 c 1
 111 303 328 -4 762 -4 c 0
 1258 -4 1356 451 1356 1024 c 2
 1356 3072 l 1
EndSplineSet
EndChar

StartChar: four.alt
Encoding: 65538 -1 342
GlifName: four.alt
Width: 2437
VWidth: 4730
Flags: HMW
LayerCount: 2
Fore
SplineSet
2171 37 m 1
 2171 0 l 1
 1085 0 l 1
 1085 37 l 1
 2171 37 l 1
1864 2040 m 1
 1864 -4 l 1
 1475 -4 l 1
 1475 1958 l 1
 1598 1958 1782 1999 1864 2040 c 1
127 795 m 1
 2232 795 l 1
 2232 758 l 1
 61 758 l 1
 634 1577 1311 2458 1393 3072 c 1
 1794 3072 l 1
 1716 2478 705 1590 127 795 c 1
EndSplineSet
EndChar

StartChar: fj.lig
Encoding: 65539 -1 343
GlifName: fj.lig
Width: 2232
VWidth: 4730
Flags: HMW
LayerCount: 2
Fore
SplineSet
61 37 m 1
 1188 37 l 1
 1188 0 l 1
 61 0 l 1
 61 37 l 1
1884 -49 m 2
 1884 -586 1773 -1065 1241 -1065 c 0
 909 -1065 737 -851 737 -618 c 0
 737 -450 848 -365 971 -365 c 0
 1073 -365 1200 -422 1200 -586 c 0
 1200 -750 1081 -815 942 -815 c 0
 881 -815 815 -762 807 -713 c 1
 815 -869 983 -1024 1221 -1024 c 0
 1590 -1024 1516 -438 1516 82 c 2
 1516 1847 l 1
 61 1847 l 1
 61 1884 l 1
 1884 1884 l 1
 1884 -49 l 2
1831 2761 m 1
 1831 2892 1692 3076 1319 3076 c 0
 909 3076 799 2732 799 2212 c 2
 799 0 l 1
 430 0 l 1
 430 2097 l 2
 430 2634 705 3113 1319 3113 c 0
 1733 3113 1905 2899 1905 2666 c 0
 1905 2498 1794 2413 1671 2413 c 0
 1569 2413 1442 2470 1442 2634 c 0
 1442 2798 1565 2863 1688 2863 c 0
 1770 2863 1815 2810 1831 2761 c 1
EndSplineSet
LCarets2: 1 0
Ligature2: "'liga' Standard Ligatures lookup 0-1" f j
EndChar

StartChar: uni2116
Encoding: 8470 8470 344
Width: 4448
Flags: HW
LayerCount: 2
Fore
SplineSet
3297 2335 m 0
 3297 1868 3399 1593 3641 1593 c 0
 3883 1593 3985 1868 3985 2335 c 0
 3985 2802 3883 3076 3641 3076 c 0
 3399 3076 3297 2802 3297 2335 c 0
2949 2335 m 0
 2949 2827 3227 3113 3641 3113 c 0
 4055 3113 4334 2827 4334 2335 c 0
 4334 1843 4055 1556 3641 1556 c 0
 3227 1556 2949 1843 2949 2335 c 0
EndSplineSet
Refer: 85 45 N 1 0 0 1 2904 164 2
Refer: 25 78 N 1 0 0 1 0 0 2
EndChar

StartChar: Euro
Encoding: 8364 8364 345
Width: 2908
Flags: HW
LayerCount: 2
Fore
SplineSet
2617 2630 m 1
 2560 2802 2314 3072 1921 3072 c 0
 1229 3072 983 2249 983 1536 c 0
 983 741 1295 4 1823 4 c 0
 2237 4 2532 352 2634 729 c 1
 2675 729 l 1
 2569 332 2270 -41 1774 -41 c 0
 1156 -41 512 594 512 1536 c 0
 512 2396 1057 3113 1880 3113 c 0
 2380 3113 2683 2736 2683 2523 c 0
 2683 2355 2572 2269 2449 2269 c 0
 2347 2269 2216 2335 2216 2499 c 0
 2216 2642 2330 2724 2449 2724 c 0
 2543 2724 2601 2659 2617 2630 c 1
EndSplineSet
Refer: 88 61 N 1 0 0 1 -123 -287 2
EndChar
